<?xml version="1.0" encoding="iso-8859-1"?>
<!-- Generator: Adobe Illustrator 19.0.0, SVG Export Plug-In . SVG Version: 6.00 Build 0)  -->
<svg version="1.1" id="Layer_1" xmlns="http://www.w3.org/2000/svg" xmlns:xlink="http://www.w3.org/1999/xlink" x="0px" y="0px"
	 viewBox="0 0 512.01 512.01" style="enable-background:new 0 0 512.01 512.01;" xml:space="preserve">
<g>
	<g>
		<path d="M490.677,64.005H133.088c-7.189,0-13.888,3.627-17.856,9.643L3.488,244.315c-4.651,7.104-4.651,16.277,0,23.381
			l111.744,170.667c3.968,6.016,10.667,9.643,17.856,9.643h357.589c11.797,0,21.333-9.536,21.333-21.333V85.339
			C512.011,73.541,502.475,64.005,490.677,64.005z M399.093,356.421c-4.16,4.16-9.621,6.251-15.083,6.251
			c-5.461,0-10.923-2.091-15.083-6.251l-70.251-70.251l-70.251,70.251c-4.16,4.16-9.621,6.251-15.083,6.251
			c-5.461,0-10.923-2.091-15.083-6.251c-8.341-8.341-8.341-21.824,0-30.165l70.251-70.251l-70.251-70.251
			c-8.341-8.341-8.341-21.824,0-30.165s21.824-8.341,30.165,0l70.251,70.251l70.251-70.251c8.341-8.341,21.824-8.341,30.165,0
			s8.341,21.824,0,30.165l-70.251,70.251l70.253,70.251C407.434,334.597,407.434,348.08,399.093,356.421z"/>
	</g>
</g>
<g>
</g>
<g>
</g>
<g>
</g>
<g>
</g>
<g>
</g>
<g>
</g>
<g>
</g>
<g>
</g>
<g>
</g>
<g>
</g>
<g>
</g>
<g>
</g>
<g>
</g>
<g>
</g>
<g>
</g>
</svg>
