<svg xmlns="http://www.w3.org/2000/svg" width="30" height="30" viewBox="0 0 30 30">
  <g id="Group_38358" data-name="Group 38358" transform="translate(-5498 -1214)">
    <circle id="Ellipse_9" data-name="Ellipse 9" cx="15" cy="15" r="15" transform="translate(5498 1214)" fill="#fff"/>
    <g id="Icon_feather-eye-off" data-name="Icon feather-eye-off" transform="translate(5502.5 1218.5)">
      <path id="Path_11" data-name="Path 11" d="M15.268,14.584a9.972,9.972,0,0,1-4.828,1.269c-5.689,0-8.94-4.926-8.94-4.926A12.927,12.927,0,0,1,5.612,7.269M8.733,6.148A9.688,9.688,0,0,1,10.44,6c5.689,0,8.94,4.926,8.94,4.926a11.823,11.823,0,0,1-1.755,1.964m-5.462-.659a2.971,2.971,0,0,1-2.387.531,2.225,2.225,0,0,1-1.759-1.333,1.581,1.581,0,0,1,.7-1.809" transform="translate(0 0)" fill="none" stroke="#1987ca" stroke-linecap="round" stroke-linejoin="round" stroke-width="1"/>
      <path id="Path_12" data-name="Path 12" d="M1.5,1.5,19.38,20.353" fill="none" stroke="#1987ca" stroke-linecap="round" stroke-linejoin="round" stroke-width="1"/>
    </g>
  </g>
</svg>
