<svg xmlns="http://www.w3.org/2000/svg" width="24" height="24" viewBox="0 0 24 24">
  <g id="contacts" transform="translate(-151.665 -554.665)">
    <circle id="Ellipse_1949" data-name="Ellipse 1949" cx="12" cy="12" r="12" transform="translate(151.665 554.665)" fill="#fabc05"/>
    <g id="Group_38032" data-name="Group 38032" transform="translate(158.382 560.395)">
      <g id="_3-user.3" data-name="3-user.3" transform="translate(-5.015 -5)" fill="#fafafa" fill-rule="evenodd">
        <path d="M 10.58534240722656 18.5116024017334 C 8.807962417602539 18.5116024017334 7.474052429199219 18.34652137756348 6.507392406463623 18.00694274902344 C 4.860312461853027 17.42832183837891 4.514582633972168 16.3947925567627 4.514582633972168 15.62965202331543 C 4.514582633972168 14.86383247375488 4.858872413635254 13.82824230194092 6.499082565307617 13.24369239807129 C 7.247900485992432 12.97682189941406 8.214256286621094 12.81572914123535 9.43332576751709 12.75600242614746 C 8.753086090087891 12.56321811676025 8.13121223449707 12.1989860534668 7.620362281799316 11.68516254425049 C 6.832722663879395 10.89294242858887 6.398952484130859 9.835291862487793 6.398952484130859 8.707052230834961 C 6.398952484130859 7.578512191772461 6.832752227783203 6.520862102508545 7.620442390441895 5.728941917419434 C 8.408702850341797 4.936452388763428 9.461662292480469 4.500002384185791 10.58534240722656 4.500002384185791 C 11.70903205871582 4.500002384185791 12.76200199127197 4.936452388763428 13.55027198791504 5.728941917419434 C 14.33797264099121 6.520862102508545 14.77177238464355 7.578512191772461 14.77177238464355 8.707052230834961 C 14.77177238464355 9.835291862487793 14.33799266815186 10.89294242858887 13.55035209655762 11.68517208099365 C 13.03983306884766 12.19865703582764 12.41839504241943 12.56275367736816 11.73867416381836 12.75563335418701 C 12.95502185821533 12.81436729431152 13.91836833953857 12.97248077392578 14.66339206695557 13.23428249359131 C 16.31045341491699 13.8130521774292 16.65618324279785 14.84692192077637 16.65618324279785 15.61231231689453 C 16.65618324279785 16.37788200378418 16.31188201904297 17.41313171386719 14.67161273956299 17.99752235412598 C 13.70068264007568 18.34344291687012 12.36405277252197 18.5116024017334 10.58534240722656 18.5116024017334 Z" stroke="none"/>
        <path d="M 10.58534336090088 5.000001907348633 C 8.539453506469727 5.000001907348633 6.898953437805176 6.648452758789062 6.898953437805176 8.707052230834961 C 6.898953437805176 10.76483249664307 8.539453506469727 12.41489219665527 10.58534336090088 12.41489219665527 C 12.63125324249268 12.41489219665527 14.27177333831787 10.76483249664307 14.27177333831787 8.707052230834961 C 14.27177333831787 6.648452758789062 12.63125324249268 5.000001907348633 10.58534336090088 5.000001907348633 M 10.58534336090088 13.2294921875 C 7.563933372497559 13.2294921875 5.014583587646484 13.72325229644775 5.014583587646484 15.62965202331543 C 5.014583587646484 17.53517150878906 7.580403327941895 18.0116024017334 10.58534336090088 18.0116024017334 C 13.60679340362549 18.0116024017334 16.15618324279785 17.51783180236816 16.15618324279785 15.61231231689453 C 16.15618324279785 13.70591259002686 13.59032344818115 13.2294921875 10.58534336090088 13.2294921875 M 10.58534336090088 4.000001907348633 C 11.84309387207031 4.000001907348633 13.02195358276367 4.488792419433594 13.9047737121582 5.3763427734375 C 14.78629302978516 6.262592315673828 15.27177333831787 7.445462226867676 15.27177333831787 8.707052230834961 C 15.27177333831787 9.968301773071289 14.78635406494141 11.15115261077881 13.90492343902588 12.03769207000732 C 13.76593589782715 12.17748737335205 13.61957550048828 12.30742740631104 13.46676826477051 12.42709827423096 C 13.97956848144531 12.51142501831055 14.43216323852539 12.62305164337158 14.82915306091309 12.76255226135254 C 16.85386276245117 13.47404193878174 17.15618324279785 14.85341262817383 17.15618324279785 15.61231231689453 C 17.15618324279785 16.37075233459473 16.85520362854004 17.75035285949707 14.83942317962646 18.46852111816406 C 13.81372356414795 18.83396148681641 12.42220306396484 19.0116024017334 10.58534336090088 19.0116024017334 C 8.750583648681641 19.0116024017334 7.362462997436523 18.83728218078613 6.341663360595703 18.47867202758789 C 4.316904067993164 17.76737213134766 4.014583587646484 16.38836288452148 4.014583587646484 15.62965202331543 C 4.014583587646484 14.87102222442627 4.315553665161133 13.4910717010498 6.331223487854004 12.77270221710205 C 6.732302665710449 12.62976455688477 7.189226150512695 12.51556873321533 7.706967353820801 12.42947196960449 C 7.553068161010742 12.30914783477783 7.405686378479004 12.17840957641602 7.265783309936523 12.03769207000732 C 6.384373664855957 11.15114212036133 5.898953437805176 9.968301773071289 5.898953437805176 8.707052230834961 C 5.898953437805176 7.445462226867676 6.38442325592041 6.262592315673828 7.26594352722168 5.3763427734375 C 8.148743629455566 4.488792419433594 9.327603340148926 4.000001907348633 10.58534336090088 4.000001907348633 Z" stroke="none" fill="#fabc05"/>
      </g>
    </g>
    <g id="Ellipse_1958" data-name="Ellipse 1958" transform="translate(153.151 556.151)" fill="none" stroke="#fafafa" stroke-width="0.6">
      <circle cx="10.74" cy="10.74" r="10.74" stroke="none"/>
      <circle cx="10.74" cy="10.74" r="10.44" fill="none"/>
    </g>
  </g>
</svg>
