<svg xmlns="http://www.w3.org/2000/svg" width="24" height="24" viewBox="0 0 24 24">
  <g id="group" transform="translate(-265.322 -555.322)">
    <circle id="Ellipse_1949" data-name="Ellipse 1949" cx="12" cy="12" r="12" transform="translate(265.322 555.322)" fill="#fabc05"/>
    <g id="Group_38033" data-name="Group 38033" transform="translate(270.491 562.406)">
      <path id="_3-user.3" data-name="3-user.3" d="M9.976,6.987A1.976,1.976,0,1,1,8,5,1.975,1.975,0,0,1,9.976,6.987ZM8,11.973c-1.61,0-2.986-.255-2.986-1.277S6.381,9.41,8,9.41s2.986.255,2.986,1.277S9.619,11.973,8,11.973Z" transform="translate(-5.015 -3.731)" fill="#fafafa" fill-rule="evenodd"/>
      <path id="_3-user.3-2" data-name="3-user.3" d="M9.974,6.986A1.975,1.975,0,1,1,8,5,1.974,1.974,0,0,1,9.974,6.986ZM8,11.971c-1.61,0-2.985-.255-2.985-1.276S6.38,9.409,8,9.409s2.985.255,2.985,1.277S9.618,11.971,8,11.971Z" transform="translate(2.782 -3.731)" fill="#fafafa" fill-rule="evenodd"/>
      <g id="_3-user.3-3" data-name="3-user.3" transform="translate(-2.39 -5)" fill="#fafafa" fill-rule="evenodd">
        <path d="M 9.086053848266602 15.00972175598145 C 7.955373287200928 15.00972175598145 4.514583587646484 15.00972175598145 4.514583587646484 12.76884174346924 C 4.514583587646484 12.16584205627441 4.781723499298096 11.35182189941406 6.054373264312744 10.89826202392578 C 6.485007286071777 10.74478626251221 7.010127544403076 10.63820648193359 7.641685009002686 10.57700729370117 C 7.342551708221436 10.42533016204834 7.066656589508057 10.22527885437012 6.823623180389404 9.980832099914551 C 6.222733497619629 9.376431465148926 5.89180326461792 8.569742202758789 5.89180326461792 7.709352016448975 C 5.89180326461792 6.848731994628906 6.222753524780273 6.042041778564453 6.823703289031982 5.437861919403076 C 7.425263404846191 4.833071708679199 8.228713035583496 4.500001907348633 9.086053848266602 4.500001907348633 C 9.943403244018555 4.500001907348633 10.74686336517334 4.833071708679199 11.34842300415039 5.437861919403076 C 11.94937324523926 6.042041778564453 12.28033351898193 6.848731994628906 12.28033351898193 7.709352016448975 C 12.28033351898193 8.569742202758789 11.94940376281738 9.376431465148926 11.34850311279297 9.980832099914551 C 11.10815143585205 10.22258186340332 10.83560085296631 10.42093944549561 10.54027080535889 10.57199954986572 C 11.94583892822266 10.70928573608398 13.65758323669434 11.1751708984375 13.65758323669434 12.75617218017578 C 13.65758323669434 13.3589916229248 13.3904333114624 14.17276191711426 12.11772346496582 14.62620162963867 C 11.39337348937988 14.8842716217041 10.40170383453369 15.00972175598145 9.086053848266602 15.00972175598145 Z" stroke="none"/>
        <path d="M 9.086053848266602 5.000001907348633 C 7.59078311920166 5.000001907348633 6.391803741455078 6.204801559448242 6.391803741455078 7.709351539611816 C 6.391803741455078 9.213312149047852 7.59078311920166 10.41928195953369 9.086053848266602 10.41928195953369 C 10.58134269714355 10.41928195953369 11.78033351898193 9.213312149047852 11.78033351898193 7.709351539611816 C 11.78033351898193 6.204801559448242 10.58134269714355 5.000001907348633 9.086053848266602 5.000001907348633 M 9.086053848266602 11.01464176177979 C 6.877813339233398 11.01464176177979 5.014583587646484 11.37552165985107 5.014583587646484 12.76884174346924 C 5.014583587646484 14.16152191162109 6.889853477478027 14.50972175598145 9.086053848266602 14.50972175598145 C 11.2943229675293 14.50972175598145 13.15758323669434 14.14884185791016 13.15758323669434 12.75617218017578 C 13.15758323669434 11.36284160614014 11.28229331970215 11.01464176177979 9.086053848266602 11.01464176177979 M 9.086053848266602 4.000001907348633 C 10.07746315002441 4.000001907348633 11.00681304931641 4.385421752929688 11.70292282104492 5.085262298583984 C 12.39770317077637 5.783761978149414 12.78033351898193 6.715682029724121 12.78033351898193 7.709351539611816 C 12.78033351898193 8.672739028930664 12.4205379486084 9.578256607055664 11.76520729064941 10.26936912536621 C 11.94746780395508 10.313551902771 12.11781883239746 10.36354827880859 12.27693367004395 10.41946220397949 C 13.91325378417969 10.99447154998779 14.15758323669434 12.13029193878174 14.15758323669434 12.75617218017578 C 14.15758323669434 13.38138198852539 13.91437339782715 14.51688194274902 12.2855339050293 15.09720230102539 C 11.50640296936035 15.37478160858154 10.45984363555908 15.50972175598145 9.086053848266602 15.50972175598145 C 7.714213371276855 15.50972175598145 6.670503616333008 15.37734222412109 5.895303726196289 15.10501194000244 C 4.258913040161133 14.5301513671875 4.014583587646484 13.39458179473877 4.014583587646484 12.76884174346924 C 4.014583587646484 12.14350128173828 4.257773399353027 11.00775146484375 5.886523246765137 10.42728137969971 C 6.049008369445801 10.36937427520752 6.223203659057617 10.31765365600586 6.409500122070312 10.27208805084229 C 5.752520561218262 9.580630302429199 5.391803741455078 8.674012184143066 5.391803741455078 7.709351539611816 C 5.391803741455078 6.715682029724121 5.774433135986328 5.783761978149414 6.469202995300293 5.085262298583984 C 7.165303230285645 4.385421752929688 8.094653129577637 4.000001907348633 9.086053848266602 4.000001907348633 Z" stroke="none" fill="#fabc05"/>
      </g>
    </g>
    <g id="Ellipse_1960" data-name="Ellipse 1960" transform="translate(266.177 556.177)" fill="none" stroke="#fafafa" stroke-width="0.6">
      <circle cx="10.984" cy="10.984" r="10.984" stroke="none"/>
      <circle cx="10.984" cy="10.984" r="10.684" fill="none"/>
    </g>
  </g>
</svg>
