<svg xmlns="http://www.w3.org/2000/svg" width="8.359" height="15.367" viewBox="0 0 8.359 15.367">
  <path id="icon_dollar" d="M8.359,1.29c0-1.815-.936-2.723-3.022-3.4C3.9-2.571,3.513-2.741,3.513-3.264c0-.446.368-.723,1.089-.723a3.365,3.365,0,0,1,2.178.815L8.1-4.74A4.581,4.581,0,0,0,5.491-6.033V-8.34H3.42v2.292C1.657-5.771.429-4.664.429-3.018c0,1.477.706,2.523,3.16,3.292C4.908.69,5.23.951,5.23,1.551c0,.523-.383.908-1.258.908a3.741,3.741,0,0,1-2.5-.984L0,3.089A5.428,5.428,0,0,0,3.42,4.6v2.43H5.491V4.489A3.261,3.261,0,0,0,8.359,1.29Z" transform="translate(0 8.34)" fill="#fafafa" opacity="0.998"/>
</svg>
