<svg xmlns="http://www.w3.org/2000/svg" width="7" height="7" viewBox="0 0 7 7">
  <g id="notifications" transform="translate(0.5 0.5)" fill="#ea4335">
    <path d="M 3 6.25 C 1.207939982414246 6.25 -0.25 4.792059898376465 -0.25 3 C -0.25 1.207939982414246 1.207939982414246 -0.25 3 -0.25 C 4.792059898376465 -0.25 6.25 1.207939982414246 6.25 3 C 6.25 4.792059898376465 4.792059898376465 6.25 3 6.25 Z" stroke="none"/>
    <path d="M 3 6 C 4.65684986114502 6 6 4.65684986114502 6 3 C 6 1.343150019645691 4.65684986114502 -4.440892098500626e-16 3 -4.440892098500626e-16 C 1.343150019645691 -4.440892098500626e-16 -4.440892098500626e-16 1.343150019645691 -4.440892098500626e-16 3 C -4.440892098500626e-16 4.65684986114502 1.343150019645691 6 3 6 M 3 6.5 C 1.070090055465698 6.5 -0.5 4.929910182952881 -0.5 3 C -0.5 1.070090055465698 1.070090055465698 -0.5 3 -0.5 C 4.929910182952881 -0.5 6.5 1.070090055465698 6.5 3 C 6.5 4.929910182952881 4.929910182952881 6.5 3 6.5 Z" stroke="none" fill="#fafafa"/>
  </g>
</svg>
