<svg xmlns="http://www.w3.org/2000/svg" width="25" height="25" viewBox="0 0 25 25">
  <g id="wallet" transform="translate(-9 -164)">
    <circle id="Oval" cx="12.5" cy="12.5" r="12.5" transform="translate(9 164)" fill="#fff" opacity="0.97"/>
    <circle id="Oval-2" data-name="Oval" cx="11.5" cy="11.5" r="11.5" transform="translate(10 165)" fill="none" stroke="#4286f5" stroke-width="1"/>
    <g id="Page-1" transform="translate(13.51 166.98)">
      <g id="_562" data-name="562" transform="translate(1)">
        <path id="Shape" d="M7.988,10.635V8.327A1.321,1.321,0,0,1,9.267,6.969h4.7V5.531a1.488,1.488,0,0,0-.957-1.438h0L11.356,4.08,3.784,4.07l-2.614,0,0-.021A1.439,1.439,0,0,0,.017,5.484v7.953a1.515,1.515,0,0,0,1.391,1.555H12.622a1.432,1.432,0,0,0,1.343-1.508V12.031h-4.7a1.357,1.357,0,0,1-1.28-1.4Z" fill="#4286f5"/>
        <path id="Shape-2" data-name="Shape" d="M13,8.061H9.989a1,1,0,0,0-.958,1.045v.816a1,1,0,0,0,.958,1.044H13a1,1,0,0,0,.959-1.044V9.106A1,1,0,0,0,13,8.061Zm-.965,1.955H9.969V9h2.062v1.016Z" fill="#4286f5"/>
      </g>
    </g>
  </g>
</svg>
