<svg xmlns="http://www.w3.org/2000/svg" width="31" height="31" viewBox="0 0 31 31">
  <g id="contacts" transform="translate(-152 -555)">
    <circle id="Ellipse_1949" data-name="Ellipse 1949" cx="15.5" cy="15.5" r="15.5" transform="translate(152 555)" fill="#fabc05"/>
    <g id="Group_38032" data-name="Group 38032" transform="translate(-0.695 -1.813)">
      <g id="_3-user.3" data-name="3-user.3" transform="translate(157.378 560.439)" fill="#fafafa">
        <path d="M 10.89953422546387 19.24545860290527 C 9.025154113769531 19.24545860290527 7.619064331054688 19.07158851623535 6.600934505462646 18.71391868591309 C 4.876534461975098 18.1081485748291 4.51457405090332 17.0283374786377 4.51457405090332 16.22916793823242 C 4.51457405090332 15.42922878265381 4.875034332275391 14.34719848632812 6.592264175415039 13.73519802093506 C 7.418576240539551 13.44070816040039 8.497150421142578 13.26851463317871 9.870601654052734 13.21327209472656 C 9.086258888244629 13.02677440643311 8.36833667755127 12.6267147064209 7.78732442855835 12.04231834411621 C 6.960554122924805 11.21073818206787 6.505234241485596 10.10049819946289 6.505234241485596 8.916128158569336 C 6.505234241485596 7.731438159942627 6.960584163665771 6.621208190917969 7.78740406036377 5.789948463439941 C 8.614794731140137 4.958108425140381 9.720034599304199 4.499998569488525 10.89953422546387 4.499998569488525 C 12.07904434204102 4.499998569488525 13.18429470062256 4.958108425140381 14.01169395446777 5.789948463439941 C 14.83851432800293 6.621208190917969 15.29387474060059 7.731438159942627 15.29387474060059 8.916128158569336 C 15.29387474060059 10.10049819946289 14.83854389190674 11.21073818206787 14.01176452636719 12.04231834411621 C 13.43105506896973 12.62641048431396 12.7135066986084 13.0263729095459 11.92963600158691 13.2129955291748 C 13.30051898956299 13.26732158660889 14.37595558166504 13.4363431930542 15.19824409484863 13.72529792785645 C 16.92261505126953 14.33124828338623 17.28457450866699 15.41140842437744 17.28457450866699 16.21084785461426 C 17.28457450866699 17.01051902770996 16.92410469055176 18.09218788146973 15.2068042755127 18.70402908325195 C 14.1842041015625 19.06835746765137 12.77528381347656 19.24545860290527 10.89953422546387 19.24545860290527 Z" stroke="none"/>
        <path d="M 10.89953517913818 4.999998092651367 C 8.738255500793457 4.999998092651367 7.00523567199707 6.741428375244141 7.00523567199707 8.916128158569336 C 7.00523567199707 11.08995819091797 8.738255500793457 12.83308792114258 10.89953517913818 12.83308792114258 C 13.06083488464355 12.83308792114258 14.79387474060059 11.08995819091797 14.79387474060059 8.916128158569336 C 14.79387474060059 6.741428375244141 13.06083488464355 4.999998092651367 10.89953517913818 4.999998092651367 M 10.89953517913818 13.69362831115723 C 7.707715034484863 13.69362831115723 5.014575958251953 14.21523857116699 5.014575958251953 16.22916793823242 C 5.014575958251953 18.24215888977051 7.725114822387695 18.74545860290527 10.89953517913818 18.74545860290527 C 14.09138488769531 18.74545860290527 16.78457641601562 18.22383880615234 16.78457641601562 16.21084785461426 C 16.78457641601562 14.19692802429199 14.07399559020996 13.69362831115723 10.89953517913818 13.69362831115723 M 10.89953517913818 3.999998092651367 C 12.21310520172119 3.999998092651367 13.44424533843994 4.510457992553711 14.36618518829346 5.437337875366211 C 15.28684520721436 6.36292839050293 15.79387474060059 7.598388671875 15.79387474060059 8.916128158569336 C 15.79387474060059 10.23350811004639 15.28690528869629 11.46893787384033 14.36634540557861 12.39484882354736 C 14.18984985351562 12.57236957550049 14.00200176239014 12.73464584350586 13.80444717407227 12.88097667694092 C 14.39667510986328 12.97165107727051 14.91440677642822 13.09558010101318 15.36400508880615 13.25356864929199 C 17.36462593078613 13.95659828186035 17.78457641601562 15.24978828430176 17.78457641601562 16.21084785461426 C 17.78457641601562 17.1713981628418 17.36646461486816 18.46536827087402 15.37461471557617 19.17502784729004 C 14.29724502563477 19.55886840820312 12.83342552185059 19.74545860290527 10.89953517913818 19.74545860290527 C 8.967764854431152 19.74545860290527 7.507474899291992 19.56234741210938 6.435205459594727 19.1856575012207 C 4.434535980224609 18.48282814025879 4.014575958251953 17.18997764587402 4.014575958251953 16.22916793823242 C 4.014575958251953 15.2683687210083 4.432655334472656 13.97404861450195 6.424415588378906 13.26420879364014 C 6.878182411193848 13.10249137878418 7.400569915771484 12.97576999664307 7.997732162475586 12.88326358795166 C 7.799071311950684 12.73635005950928 7.610141754150391 12.57327556610107 7.432744979858398 12.39484882354736 C 6.512205123901367 11.46893787384033 6.00523567199707 10.23350811004639 6.00523567199707 8.916128158569336 C 6.00523567199707 7.598398208618164 6.512255668640137 6.362937927246094 7.432905197143555 5.437337875366211 C 8.354835510253906 4.510457992553711 9.585975646972656 3.999998092651367 10.89953517913818 3.999998092651367 Z" stroke="none" fill="#fabc05"/>
      </g>
    </g>
    <g id="Ellipse_1958" data-name="Ellipse 1958" transform="translate(153.5 556.5)" fill="none" stroke="#fafafa" stroke-width="0.6">
      <circle cx="14" cy="14" r="14" stroke="none"/>
      <circle cx="14" cy="14" r="13.7" fill="none"/>
    </g>
  </g>
</svg>
