<svg xmlns="http://www.w3.org/2000/svg" width="31" height="31" viewBox="0 0 31 31">
  <g id="gift" transform="translate(-39 -555)">
    <g id="Group_38325" data-name="Group 38325">
      <circle id="Ellipse_1949" data-name="Ellipse 1949" cx="15.5" cy="15.5" r="15.5" transform="translate(39 555)" fill="#fabc05"/>
      <g id="Gift-2" data-name="Gift" transform="translate(46.201 562.201)">
        <path id="Path_23734" data-name="Path 23734" d="M3,10.64A.64.64,0,0,1,3.64,10H13.874a.64.64,0,0,1,.64.64v5.405a1.919,1.919,0,0,1-1.919,1.919H4.919A1.919,1.919,0,0,1,3,16.045Z" transform="translate(-0.36 -3.171)" fill="#fafafa"/>
        <path id="Path_23736" data-name="Path 23736" d="M7,3.919A1.919,1.919,0,0,0,8.919,5.838h.64v1.6a.32.32,0,0,0,.32.32h.64a.32.32,0,0,0,.32-.32v-1.6h.64A1.919,1.919,0,1,0,10.2,2.489,1.919,1.919,0,0,0,7,3.919Zm2.239.64a.32.32,0,0,0,.32-.32v-.32a.64.64,0,1,0-.64.64Zm1.919,0a.32.32,0,0,1-.32-.32v-.32a.64.64,0,1,1,.64.64Z" transform="translate(-1.802)" fill="#fafafa"/>
        <path id="Path_23737" data-name="Path 23737" d="M11,10.32a.32.32,0,0,1,.32-.32h.64a.32.32,0,0,1,.32.32v7.324a.32.32,0,0,1-.32.32h-.64a.32.32,0,0,1-.32-.32Z" transform="translate(-3.243 -3.171)" fill="#fabc05"/>
        <path id="Path_23735" data-name="Path 23735" d="M2,7.279A1.279,1.279,0,0,1,3.279,6H13.514a1.279,1.279,0,0,1,1.279,1.279v.64A1.279,1.279,0,0,1,13.514,9.2H3.279A1.279,1.279,0,0,1,2,7.919Z" transform="translate(0 -1.441)" fill="#fafafa"/>
      </g>
      <g id="Ellipse_1956" data-name="Ellipse 1956" transform="translate(40.5 556.5)" fill="none" stroke="#fafafa" stroke-width="0.6">
        <circle cx="14" cy="14" r="14" stroke="none"/>
        <circle cx="14" cy="14" r="13.7" fill="none"/>
      </g>
    </g>
  </g>
</svg>
