<svg xmlns="http://www.w3.org/2000/svg" width="31" height="31" viewBox="0 0 31 31">
  <g id="group" transform="translate(-265 -555)">
    <circle id="Ellipse_1949" data-name="Ellipse 1949" cx="15.5" cy="15.5" r="15.5" transform="translate(265 555)" fill="#fabc05"/>
    <g id="Group_38033" data-name="Group 38033" transform="translate(112.951 -1)">
      <path id="_3-user.3" data-name="3-user.3" d="M11.338,7.532A2.518,2.518,0,1,1,8.82,5,2.517,2.517,0,0,1,11.338,7.532ZM8.82,13.888c-2.053,0-3.805-.325-3.805-1.627s1.741-1.64,3.805-1.64,3.805.325,3.805,1.628S10.884,13.888,8.82,13.888Z" transform="translate(154.033 562.057)" fill="#fafafa"/>
      <path id="_3-user.3-2" data-name="3-user.3" d="M11.336,7.531A2.517,2.517,0,1,1,8.819,5,2.516,2.516,0,0,1,11.336,7.531ZM8.819,13.885c-2.052,0-3.8-.325-3.8-1.627s1.741-1.639,3.8-1.639,3.8.325,3.8,1.627S10.882,13.885,8.819,13.885Z" transform="translate(163.971 562.057)" fill="#fafafa"/>
      <g id="_3-user.3-3" data-name="3-user.3" transform="translate(157.378 560.439)" fill="#fafafa">
        <path d="M 10.20398902893066 17.62088203430176 C 8.54434871673584 17.62088203430176 7.298048973083496 17.46647262573242 6.393848896026611 17.14883232116699 C 4.840619087219238 16.60318183898926 4.514579296112061 15.62581157684326 4.514579296112061 14.90199184417725 C 4.514579296112061 14.17758178710938 4.839249134063721 13.19835186004639 6.385969161987305 12.6471118927002 C 7.047064304351807 12.41150569915771 7.888747692108154 12.2640380859375 8.938518524169922 12.20124053955078 C 8.370699882507324 12.00965595245361 7.851609706878662 11.68808269500732 7.417708873748779 11.25165176391602 C 6.677568912506104 10.50721168518066 6.269958972930908 9.513391494750977 6.269958972930908 8.453282356262207 C 6.269958972930908 7.392891883850098 6.67759895324707 6.399072170257568 7.417788982391357 5.654911994934082 C 8.15855884552002 4.910151958465576 9.148049354553223 4.500001907348633 10.20398902893066 4.500001907348633 C 11.25993919372559 4.500001907348633 12.24943923950195 4.910151958465576 12.99021911621094 5.654911994934082 C 13.73041915893555 6.399072170257568 14.13805866241455 7.392891883850098 14.13805866241455 8.453282356262207 C 14.13805866241455 9.513391494750977 13.73043918609619 10.50721168518066 12.99029922485352 11.25165176391602 C 12.55675411224365 11.68771839141846 12.03816509246826 12.00911808013916 11.4708948135376 12.20075988769531 C 12.51800537109375 12.26249408721924 13.35658264160156 12.40720653533936 14.01422882080078 12.63830184936523 C 15.56744861602783 13.18410205841064 15.893479347229 14.16178226470947 15.893479347229 14.88584232330322 C 15.893479347229 15.61001205444336 15.56879901885986 16.58894157409668 14.0220193862915 17.14002227783203 C 13.11380863189697 17.46359252929688 11.86491870880127 17.62088203430176 10.20398902893066 17.62088203430176 Z" stroke="none"/>
        <path d="M 10.20398902893066 5.000001907348633 C 8.298149108886719 5.000001907348633 6.769959449768066 6.535612106323242 6.769959449768066 8.453282356262207 C 6.769959449768066 10.37019157409668 8.298149108886719 11.90729236602783 10.20398902893066 11.90729236602783 C 12.10984897613525 11.90729236602783 13.63805961608887 10.37019157409668 13.63805961608887 8.453282356262207 C 13.63805961608887 6.535612106323242 12.10984897613525 5.000001907348633 10.20398902893066 5.000001907348633 M 10.20398902893066 12.6661319732666 C 7.389419555664062 12.6661319732666 5.014578819274902 13.12609195709229 5.014578819274902 14.90199184417725 C 5.014578819274902 16.67707252502441 7.404759407043457 17.12088203430176 10.20398902893066 17.12088203430176 C 13.01859855651855 17.12088203430176 15.39347839355469 16.66091156005859 15.39347839355469 14.88584136962891 C 15.39347839355469 13.10994243621826 13.00325965881348 12.6661319732666 10.20398902893066 12.6661319732666 M 10.20398902893066 4.000001907348633 C 11.39399909973145 4.000001907348633 12.5093994140625 4.462501525878906 13.34471893310547 5.302301406860352 C 14.17873954772949 6.140802383422852 14.63805961608887 7.259841918945312 14.63805961608887 8.453282356262207 C 14.63805961608887 9.646402359008789 14.17879867553711 10.76541233062744 13.34486961364746 11.60418224334717 C 13.2495641708374 11.70004081726074 13.15068435668945 11.79092979431152 13.04839706420898 11.8768367767334 C 13.4693775177002 11.95260429382324 13.84554004669189 12.04905700683594 14.17998886108398 12.16658210754395 C 16.10590934753418 12.84335231781006 16.39347839355469 14.1607723236084 16.39347839355469 14.88584136962891 C 16.39347839355469 15.61039161682129 16.1071891784668 16.92790222167969 14.18982887268066 17.61101150512695 C 13.22683906555176 17.9541015625 11.92305946350098 18.12088203430176 10.20398902893066 18.12088203430176 C 8.486979484558105 18.12088203430176 7.186459541320801 17.95723152160645 6.228129386901855 17.62057113647461 C 4.302148818969727 16.94397163391113 4.014579772949219 15.62688255310059 4.014579772949219 14.90199184417725 C 4.014579772949219 14.17726135253906 4.300849914550781 12.8594217300415 6.218109130859375 12.17613220214844 C 6.556404113769531 12.05556678771973 6.936873435974121 11.95674991607666 7.362542152404785 11.87930488586426 C 7.259263038635254 11.79270935058594 7.159300804138184 11.70091342926025 7.063129425048828 11.60418224334717 C 6.229219436645508 10.76541233062744 5.769959449768066 9.646402359008789 5.769959449768066 8.453282356262207 C 5.769959449768066 7.259841918945312 6.229269027709961 6.140802383422852 7.063288688659668 5.302301406860352 C 7.898598670959473 4.462501525878906 9.013989448547363 4.000001907348633 10.20398902893066 4.000001907348633 Z" stroke="none" fill="#fabc05"/>
      </g>
    </g>
    <g id="Ellipse_1960" data-name="Ellipse 1960" transform="translate(266.5 556.5)" fill="none" stroke="#fafafa" stroke-width="0.6">
      <circle cx="14" cy="14" r="14" stroke="none"/>
      <circle cx="14" cy="14" r="13.7" fill="none"/>
    </g>
  </g>
</svg>
