<svg xmlns="http://www.w3.org/2000/svg" width="31" height="31" viewBox="0 0 31 31">
  <g id="laguage_and_currency" data-name="laguage and currency" transform="translate(-39 -683)">
    <circle id="Ellipse_1950" data-name="Ellipse 1950" cx="15.5" cy="15.5" r="15.5" transform="translate(39 683)" fill="#fabc05"/>
    <g id="Row_2_1_" transform="translate(46.5 690.5)">
      <g id="worldwide_2">
        <g id="Group_38292" data-name="Group 38292">
          <path id="Path_23861" data-name="Path 23861" d="M15.025,4.027a.167.167,0,0,1,.021-.016L15.009,4A8.042,8.042,0,0,0,1.1,4l-.037.01c.006.005.015.01.021.016A8.053,8.053,0,1,0,16.111,8.056,8.014,8.014,0,0,0,15.025,4.027Zm-3.03-.51c-.184.054-.374.1-.576.151-.088-.267-.172-.537-.274-.779A6.258,6.258,0,0,1,11.995,3.517Zm-3.939-1.5c.584,0,1.106.757,1.473,1.947-.472.04-.962.066-1.473.066s-1-.026-1.473-.066C6.95,2.771,7.472,2.014,8.056,2.014ZM2.82,5.061a10.467,10.467,0,0,0,1.417.49c-.079.481-.13.984-.165,1.5H2.11A5.937,5.937,0,0,1,2.82,5.061Zm-.711,4H4.072a15.8,15.8,0,0,0,.179,1.594,11.413,11.413,0,0,0-1.341.531A5.937,5.937,0,0,1,2.11,9.063Zm2.03,3.553c.179-.056.365-.106.56-.153.086.26.168.524.268.76A6.109,6.109,0,0,1,4.14,12.615Zm.553-8.946c-.2-.046-.393-.1-.577-.151a6.2,6.2,0,0,1,.852-.629C4.865,3.132,4.78,3.4,4.692,3.669ZM8.056,14.1c-.583,0-1.1-.755-1.472-1.944.472-.043.961-.069,1.472-.069s.991.024,1.473.064C9.161,13.34,8.64,14.1,8.056,14.1Zm1.875-3.881a12.324,12.324,0,0,0-1.875-.147,12.846,12.846,0,0,0-1.876.142c-.045-.358-.049-.763-.074-1.149H10C9.981,9.449,9.977,9.857,9.931,10.217ZM6.105,7.049c.023-.377.027-.774.071-1.125a15.722,15.722,0,0,0,1.879.118,15.692,15.692,0,0,0,1.878-.118c.044.35.048.748.073,1.125Zm5.039,6.174c.1-.246.189-.519.276-.787.205.045.41.088.6.141A6.108,6.108,0,0,1,11.144,13.222Zm2.033-2a11.417,11.417,0,0,0-1.32-.544,15.652,15.652,0,0,0,.182-1.617H14A5.959,5.959,0,0,1,13.177,11.224ZM12.039,7.049c-.035-.514-.087-1.016-.165-1.5a10.7,10.7,0,0,0,1.417-.49A5.924,5.924,0,0,1,14,7.049Z" fill="#fafafa" stroke="#fabc05" stroke-linecap="round" stroke-width="0.5"/>
        </g>
      </g>
    </g>
  </g>
</svg>
