<svg xmlns="http://www.w3.org/2000/svg" width="31" height="31" viewBox="0 0 31 31">
  <g id="nearby" transform="translate(-152 -286)">
    <circle id="Ellipse_1949" data-name="Ellipse 1949" cx="15.5" cy="15.5" r="15.5" transform="translate(152 286)" fill="#fabc05"/>
    <g id="Ellipse_1959" data-name="Ellipse 1959" transform="translate(153.5 287.5)" fill="none" stroke="#fafafa" stroke-width="0.6">
      <circle cx="14" cy="14" r="14" stroke="none"/>
      <circle cx="14" cy="14" r="13.7" fill="none"/>
    </g>
    <g id="location-map" transform="translate(162 294.816)">
      <path id="Shape" d="M5.5,13.366a1.523,1.523,0,0,1-.972-.352A16.379,16.379,0,0,1,1.672,10.03,7.811,7.811,0,0,1,0,5.5a5.5,5.5,0,1,1,11,0A7.811,7.811,0,0,1,9.328,10.03a16.379,16.379,0,0,1-2.856,2.984A1.523,1.523,0,0,1,5.5,13.366Zm0-10.31a1.831,1.831,0,1,0,.357.035A1.825,1.825,0,0,0,5.5,3.056Z" transform="translate(0 0)" fill="#fafafa"/>
    </g>
  </g>
</svg>
