<svg xmlns="http://www.w3.org/2000/svg" width="235.292" height="235.9" viewBox="0 0 235.292 235.9">
  <g id="Group_564" data-name="Group 564" transform="translate(1153.978 -1110.903)">
    <path id="Polygon_1" data-name="Polygon 1" d="M81.75,0,109,47,81.75,94H27.25L0,47,27.25,0Z" transform="matrix(0.695, 0.719, -0.719, 0.695, -1040.382, 1157)" fill="#fff"/>
    <g id="Polygon_3" data-name="Polygon 3" transform="matrix(0.695, 0.719, -0.719, 0.695, -1042.98, 1110.903)" fill="none" stroke-linecap="round" stroke-dasharray="5">
      <path d="M134.2,0l44.732,77.153L134.2,154.305H44.732L0,77.153,44.732,0Z" stroke="none"/>
      <path d="M 44.73213195800781 -1.52587890625e-05 L 49.73213195800781 -1.52587890625e-05 C 50.28440856933594 -1.52587890625e-05 50.73213195800781 0.4477081298828125 50.73213195800781 0.9999847412109375 C 50.73213195800781 1.552276611328125 50.28440856933594 1.999984741210938 49.73213195800781 1.999984741210938 L 45.8843994140625 1.999984741210938 L 43.62442016601562 5.89794921875 C 43.347412109375 6.375717163085938 42.73551940917969 6.538482666015625 42.25772094726562 6.261459350585938 C 41.77993774414062 5.98443603515625 41.61717224121094 5.37255859375 41.89419555664062 4.894775390625 C 41.89419555664062 4.894775390625 43.12728881835938 2.767990112304688 43.86419677734375 1.49700927734375 C 43.86419677734375 1.49700927734375 43.86418151855469 1.496994018554688 43.86418151855469 1.496994018554688 L 44.73213195800781 -1.52587890625e-05 Z M 54.73213195800781 -1.52587890625e-05 L 59.73213195800781 -1.52587890625e-05 C 60.28441619873047 -1.52587890625e-05 60.73213195800781 0.4477081298828125 60.73213195800781 0.9999847412109375 C 60.73213195800781 1.552276611328125 60.28441619873047 1.999984741210938 59.73213195800781 1.999984741210938 L 54.73213195800781 1.999984741210938 C 54.17984008789062 1.999984741210938 53.73213195800781 1.552276611328125 53.73213195800781 0.9999847412109375 C 53.73213195800781 0.4477081298828125 54.17984008789062 -1.52587890625e-05 54.73213195800781 -1.52587890625e-05 Z M 64.73213195800781 -1.52587890625e-05 L 69.73213195800781 -1.52587890625e-05 C 70.28441619873047 -1.52587890625e-05 70.73213195800781 0.4477081298828125 70.73213195800781 0.9999847412109375 C 70.73213195800781 1.552276611328125 70.28441619873047 1.999984741210938 69.73213195800781 1.999984741210938 L 64.73213195800781 1.999984741210938 C 64.17984008789062 1.999984741210938 63.73213195800781 1.552276611328125 63.73213195800781 0.9999847412109375 C 63.73213195800781 0.4477081298828125 64.17984008789062 -1.52587890625e-05 64.73213195800781 -1.52587890625e-05 Z M 74.73213195800781 -1.52587890625e-05 L 79.73213195800781 -1.52587890625e-05 C 80.28441619873047 -1.52587890625e-05 80.73213195800781 0.4477081298828125 80.73213195800781 0.9999847412109375 C 80.73213195800781 1.552276611328125 80.28441619873047 1.999984741210938 79.73213195800781 1.999984741210938 L 74.73213195800781 1.999984741210938 C 74.17984008789062 1.999984741210938 73.73213195800781 1.552276611328125 73.73213195800781 0.9999847412109375 C 73.73213195800781 0.4477081298828125 74.17984008789062 -1.52587890625e-05 74.73213195800781 -1.52587890625e-05 Z M 84.73213195800781 -1.52587890625e-05 L 89.73213195800781 -1.52587890625e-05 C 90.28441619873047 -1.52587890625e-05 90.73213195800781 0.4477081298828125 90.73213195800781 0.9999847412109375 C 90.73213195800781 1.552276611328125 90.28441619873047 1.999984741210938 89.73213195800781 1.999984741210938 L 84.73213195800781 1.999984741210938 C 84.17984008789062 1.999984741210938 83.73213195800781 1.552276611328125 83.73213195800781 0.9999847412109375 C 83.73213195800781 0.4477081298828125 84.17984008789062 -1.52587890625e-05 84.73213195800781 -1.52587890625e-05 Z M 94.73213195800781 -1.52587890625e-05 L 99.73213195800781 -1.52587890625e-05 C 100.2844161987305 -1.52587890625e-05 100.7321319580078 0.4477081298828125 100.7321319580078 0.9999847412109375 C 100.7321319580078 1.552276611328125 100.2844161987305 1.999984741210938 99.73213195800781 1.999984741210938 L 94.73213195800781 1.999984741210938 C 94.17984008789062 1.999984741210938 93.73213195800781 1.552276611328125 93.73213195800781 0.9999847412109375 C 93.73213195800781 0.4477081298828125 94.17984008789062 -1.52587890625e-05 94.73213195800781 -1.52587890625e-05 Z M 104.7321319580078 -1.52587890625e-05 L 109.7321319580078 -1.52587890625e-05 C 110.2844161987305 -1.52587890625e-05 110.7321319580078 0.4477081298828125 110.7321319580078 0.9999847412109375 C 110.7321319580078 1.552276611328125 110.2844161987305 1.999984741210938 109.7321319580078 1.999984741210938 L 104.7321319580078 1.999984741210938 C 104.1798400878906 1.999984741210938 103.7321319580078 1.552276611328125 103.7321319580078 0.9999847412109375 C 103.7321319580078 0.4477081298828125 104.1798400878906 -1.52587890625e-05 104.7321319580078 -1.52587890625e-05 Z M 114.7321319580078 -1.52587890625e-05 L 119.7321319580078 -1.52587890625e-05 C 120.2844161987305 -1.52587890625e-05 120.7321319580078 0.4477081298828125 120.7321319580078 0.9999847412109375 C 120.7321319580078 1.552276611328125 120.2844161987305 1.999984741210938 119.7321319580078 1.999984741210938 L 114.7321319580078 1.999984741210938 C 114.1798400878906 1.999984741210938 113.7321319580078 1.552276611328125 113.7321319580078 0.9999847412109375 C 113.7321319580078 0.4477081298828125 114.1798400878906 -1.52587890625e-05 114.7321319580078 -1.52587890625e-05 Z M 124.7321319580078 -1.52587890625e-05 L 129.7321319580078 -1.52587890625e-05 C 130.284423828125 -1.52587890625e-05 130.7321319580078 0.4477081298828125 130.7321319580078 0.9999847412109375 C 130.7321319580078 1.552276611328125 130.284423828125 1.999984741210938 129.7321319580078 1.999984741210938 L 124.7321319580078 1.999984741210938 C 124.1798400878906 1.999984741210938 123.7321319580078 1.552276611328125 123.7321319580078 0.9999847412109375 C 123.7321319580078 0.4477081298828125 124.1798400878906 -1.52587890625e-05 124.7321319580078 -1.52587890625e-05 Z M 133.3370666503906 -1.52587890625e-05 L 133.8619384765625 -1.52587890625e-05 C 134.1064910888672 0.0663604736328125 134.3260650634766 0.22515869140625 134.4637451171875 0.4611663818359375 L 135.4650115966797 2.1881103515625 C 135.4653167724609 2.188629150390625 135.4656219482422 2.189163208007812 135.4659118652344 2.189682006835938 L 135.4721832275391 2.200485229492188 C 135.4724884033203 2.201004028320312 135.4727935791016 2.2015380859375 135.4730987548828 2.202056884765625 L 135.4760131835938 2.20709228515625 C 135.4760131835938 2.20709228515625 135.4762268066406 2.20745849609375 135.4762268066406 2.20745849609375 L 135.4791870117188 2.212570190429688 C 135.4794921875 2.213088989257812 135.4798889160156 2.213775634765625 135.4801940917969 2.21429443359375 L 135.4935913085938 2.237396240234375 C 135.4953308105469 2.240402221679688 135.4969482421875 2.243209838867188 135.4986877441406 2.246200561523438 L 135.5003814697266 2.249114990234375 C 135.5049896240234 2.257064819335938 135.5094299316406 2.264724731445312 135.5140380859375 2.272674560546875 L 135.5142059326172 2.272964477539062 C 136.2014312744141 3.458282470703125 136.9729919433594 4.789031982421875 136.9729919433594 4.789031982421875 C 137.2500152587891 5.266830444335938 137.0872497558594 5.878707885742188 136.6094665527344 6.155731201171875 C 136.1316680908203 6.432754516601562 135.5198059082031 6.269989013671875 135.2427673339844 5.792205810546875 L 132.73486328125 1.466629028320312 C 132.4578704833984 0.9888458251953125 132.62060546875 0.3769683837890625 133.0984191894531 0.099945068359375 C 133.1751708984375 0.055450439453125 133.2553405761719 0.022308349609375 133.3370666503906 -1.52587890625e-05 Z M 138.6148529052734 8.615997314453125 C 138.9598083496094 8.615997314453125 139.2954254150391 8.794677734375 139.4808959960938 9.114578247070312 C 139.4808959960938 9.114578247070312 141.9888000488281 13.44015502929688 141.9888000488281 13.44015502929688 C 142.2658233642578 13.91793823242188 142.1030578613281 14.52981567382812 141.6252746582031 14.80685424804688 C 141.1475067138672 15.08383178710938 140.5355834960938 14.92111206054688 140.2585754394531 14.44329833984375 L 137.7506713867188 10.11775207519531 C 137.4736480712891 9.639968872070312 137.6364135742188 9.028091430664062 138.1141967773438 8.751068115234375 C 138.2720794677734 8.659515380859375 138.4446105957031 8.615997314453125 138.6148529052734 8.615997314453125 Z M 143.6306610107422 17.26712036132812 C 143.9753875732422 17.26712036132812 144.310791015625 17.44557189941406 144.496337890625 17.76509094238281 L 147.0065460205078 22.09461975097656 C 147.2808074951172 22.57192993164062 147.1177368164062 23.18159484863281 146.6410827636719 23.45794677734375 C 146.1632690429688 23.73495483398438 145.5513916015625 23.57220458984375 145.2743682861328 23.09442138671875 L 142.7664794921875 18.76887512207031 C 142.4894714355469 18.29109191894531 142.6522216796875 17.67918395996094 143.1300048828125 17.40217590332031 C 143.2878875732422 17.31063842773438 143.4604187011719 17.26712036132812 143.6306610107422 17.26712036132812 Z M 148.6464538574219 25.91822814941406 C 148.9908752441406 25.91824340820312 149.3259887695312 26.09638977050781 149.5116577148438 26.41535949707031 L 152.0225982666016 30.74615478515625 C 152.2965698242188 31.22338104248047 152.1333923339844 31.832763671875 151.6568603515625 32.10906219482422 C 151.1790771484375 32.38607788085938 150.5671997070312 32.22332763671875 150.2901763916016 31.74553680419922 L 147.7822723388672 27.41996765136719 C 147.5052795410156 26.94217681884766 147.6680297851562 26.33029937744141 148.1458129882812 26.05326843261719 C 148.3036956787109 25.96174621582031 148.4761962890625 25.91822814941406 148.6464538574219 25.91822814941406 Z M 153.6622619628906 34.5693359375 C 154.0072174072266 34.5693359375 154.3428344726562 34.74801635742188 154.5282897949219 35.06791687011719 C 154.5282897949219 35.06791687011719 157.0361938476562 39.39349365234375 157.0361938476562 39.39349365234375 C 157.313232421875 39.87127685546875 157.1504669189453 40.483154296875 156.6726837158203 40.76017761230469 C 156.1948852539062 41.03721618652344 155.5830078125 40.87445068359375 155.3059844970703 40.39662933349609 L 152.7980804443359 36.07108306884766 C 152.5210571289062 35.59329986572266 152.6838226318359 34.98141479492188 153.1616058349609 34.70439147949219 C 153.3194885253906 34.61285400390625 153.4920043945312 34.5693359375 153.6622619628906 34.5693359375 Z M 158.6780700683594 43.22045135498047 C 159.0230102539062 43.220458984375 159.3586273193359 43.39913177490234 159.5440979003906 43.71903991699219 C 159.5440979003906 43.71903991699219 159.6637878417969 43.92546081542969 159.8507537841797 44.24794769287109 L 159.8527374267578 44.25136566162109 C 159.8529052734375 44.25163269042969 159.8530120849609 44.25183868408203 159.8531799316406 44.25210571289062 L 159.8547058105469 44.2547607421875 C 159.8552856445312 44.25576019287109 159.8558959960938 44.25679779052734 159.8564758300781 44.25778961181641 L 159.8567962646484 44.25834655761719 C 159.8575744628906 44.25971221923828 159.8583374023438 44.26101684570312 159.859130859375 44.26238250732422 L 159.8592834472656 44.26265716552734 C 159.85986328125 44.26365661621094 159.8604583740234 44.26467895507812 159.8610534667969 44.26568603515625 L 159.8627319335938 44.26858520507812 C 159.8629913330078 44.26904296875 159.8632202148438 44.26943969726562 159.8634948730469 44.2698974609375 L 159.8650360107422 44.27257537841797 C 159.8653564453125 44.27312469482422 159.8656616210938 44.27365875244141 159.8659973144531 44.27420806884766 L 159.8673858642578 44.276611328125 C 159.8680267333984 44.27771759033203 159.8685455322266 44.27861022949219 159.8691864013672 44.27971649169922 L 159.8698272705078 44.28083038330078 C 159.8701477050781 44.28137969970703 159.8705902099609 44.28215026855469 159.8709106445312 44.28269958496094 L 159.8749694824219 44.28968811035156 C 159.8753967285156 44.29043579101562 159.8759002685547 44.29129791259766 159.8763275146484 44.29203796386719 L 159.8796691894531 44.29779815673828 C 159.8801574707031 44.29864501953125 159.8807220458984 44.29962921142578 159.8812103271484 44.30046844482422 L 159.8884429931641 44.31294250488281 C 159.8888854980469 44.31369781494141 159.8892211914062 44.31427764892578 159.8896484375 44.31503295898438 L 162.0537414550781 48.04759979248047 C 162.3283843994141 48.52497100830078 162.165283203125 49.13484954833984 161.6884918212891 49.41127777099609 C 161.2107086181641 49.68830108642578 160.5988006591797 49.52552795410156 160.3217926025391 49.04775238037109 L 157.8138885498047 44.72220611572266 C 157.536865234375 44.24441528320312 157.6996307373047 43.63251495361328 158.1774139404297 43.35551452636719 C 158.3352966308594 43.26396942138672 158.5078125 43.22045135498047 158.6780700683594 43.22045135498047 Z M 163.69384765625 51.87156677246094 C 164.0385894775391 51.87157440185547 164.3740081787109 52.05002593994141 164.5595550537109 52.36954498291016 L 167.0697784423828 56.69908905029297 C 167.3440246582031 57.17637634277344 167.1809234619141 57.78603363037109 166.7042694091797 58.06239318847656 C 166.2264862060547 58.33942413330078 165.6146087646484 58.17665100097656 165.3375854492188 57.69886779785156 L 162.8296813964844 53.37332153320312 C 162.5526733398438 52.89551544189453 162.7154388427734 52.28363037109375 163.1932220458984 52.00660705566406 C 163.3511047363281 51.91507720947266 163.5236053466797 51.87155914306641 163.69384765625 51.87156677246094 Z M 168.7096710205078 60.52266693115234 C 169.0546264648438 60.52266693115234 169.3902282714844 60.70134735107422 169.5756988525391 61.02125549316406 C 169.5756988525391 61.02125549316406 172.0836029052734 65.34682464599609 172.0836029052734 65.34682464599609 C 172.3606262207031 65.82460784912109 172.1978607177734 66.43649291992188 171.7200775146484 66.71351623535156 C 171.2422943115234 66.99050903320312 170.6304168701172 66.82776641845703 170.3533935546875 66.34999084472656 L 167.8454895019531 62.02442169189453 C 167.5684814453125 61.546630859375 167.7312316894531 60.93475341796875 168.2090148925781 60.65773010253906 C 168.3668975830078 60.56618499755859 168.5394287109375 60.52266693115234 168.7096710205078 60.52266693115234 Z M 173.7254638671875 69.17378997802734 C 174.0704345703125 69.17378997802734 174.4060363769531 69.35247039794922 174.5915069580078 69.67237091064453 C 174.5915069580078 69.67237091064453 175.0714721679688 70.50017547607422 175.6114044189453 71.43144989013672 L 175.6117248535156 71.43199157714844 C 175.6307830810547 71.46486663818359 175.6500244140625 71.49806213378906 175.6692199707031 71.53116607666016 L 175.6701965332031 71.53285980224609 C 175.6748962402344 71.54096984863281 175.6794891357422 71.54888153076172 175.6842041015625 71.5570068359375 L 175.6842346191406 71.55707550048828 C 175.688720703125 71.56480407714844 175.6932830810547 71.57267761230469 175.6977691650391 71.58041381835938 L 175.7021026611328 71.58787536621094 C 175.7055206298828 71.59378051757812 175.7089691162109 71.59971618652344 175.7123870849609 71.60562896728516 L 175.7149810791016 71.61009979248047 C 175.7152099609375 71.61049652099609 175.7154388427734 71.61089324951172 175.7156677246094 71.61128997802734 L 175.7188568115234 71.61679077148438 C 175.7188568115234 71.61679077148438 175.7189331054688 71.61691284179688 175.7189331054688 71.61691284179688 L 177.1007232666016 74.00019073486328 C 177.3759155273438 74.47766876220703 177.2129211425781 75.08805084228516 176.7358856201172 75.36460876464844 C 176.2581024169922 75.64163208007812 175.6461944580078 75.47887420654297 175.3692016601562 75.00108337402344 L 172.8612976074219 70.675537109375 C 172.5842742919922 70.19775390625 172.7470397949219 69.58584594726562 173.2248229980469 69.30884552001953 C 173.3827056884766 69.21730804443359 173.5552215576172 69.17378997802734 173.7254638671875 69.17378997802734 Z M 177.3854827880859 76.82173919677734 C 177.5556945800781 76.82175445556641 177.728271484375 76.86527252197266 177.8861236572266 76.95680236816406 C 178.36376953125 77.23371124267578 178.5265655517578 77.84534454345703 178.2498931884766 78.32306671142578 L 178.1753845214844 78.45159149169922 C 178.1753234863281 78.45169067382812 178.1752166748047 78.45187377929688 178.1751556396484 78.45196533203125 L 178.1701049804688 78.46068572998047 C 178.1699371337891 78.46098327636719 178.1697845458984 78.46125793457031 178.1696014404297 78.46155548095703 L 178.1123657226562 78.56027221679688 C 178.1122131347656 78.56053161621094 178.112060546875 78.56080627441406 178.1119079589844 78.56106567382812 L 178.1107025146484 78.56314849853516 C 178.1103973388672 78.56366729736328 178.1100463867188 78.56428527832031 178.1097412109375 78.56480407714844 L 178.1090850830078 78.56592559814453 C 178.1088256835938 78.56637573242188 178.1085510253906 78.56685638427734 178.1082916259766 78.56731414794922 L 178.1070404052734 78.56947326660156 C 178.1061553955078 78.57097625732422 178.1053161621094 78.57243347167969 178.1044464111328 78.57394409179688 L 178.1035308837891 78.57552337646484 C 178.1031494140625 78.57617950439453 178.102783203125 78.57681274414062 178.1024017333984 78.57747650146484 L 178.1013793945312 78.57923126220703 C 178.1013336181641 78.57929992675781 178.1012115478516 78.57952880859375 178.1011657714844 78.57958984375 L 178.0996246337891 78.58226013183594 C 178.0975646972656 78.58580780029297 178.0954284667969 78.58950042724609 178.0933227539062 78.59310913085938 L 178.0921325683594 78.59518432617188 C 178.0918121337891 78.59573364257812 178.0915222167969 78.59622192382812 178.0912170410156 78.59676361083984 L 178.0905303955078 78.59792327880859 C 178.0902252197266 78.59847259521484 178.0899047851562 78.59900665283203 178.0895843505859 78.59956359863281 L 178.0824584960938 78.61184692382812 C 178.0822143554688 78.61227416992188 178.0819702148438 78.61270904541016 178.0817260742188 78.61313629150391 L 178.0809326171875 78.61448669433594 C 178.0804443359375 78.61533355712891 178.0799407958984 78.61620330810547 178.0794525146484 78.61705017089844 L 178.0786895751953 78.61837005615234 C 178.0784759521484 78.61872100830078 178.0781860351562 78.61923217773438 178.0779876708984 78.61958312988281 L 178.0767974853516 78.62162780761719 C 178.0744018554688 78.62575531005859 178.0719146728516 78.63004302978516 178.0694885253906 78.63423919677734 L 178.0691375732422 78.63483428955078 C 178.0645141601562 78.64280700683594 178.0597839355469 78.65097045898438 178.0550079345703 78.65919494628906 L 178.0547790527344 78.65959167480469 C 178.0543518066406 78.66033935546875 178.0540008544922 78.66094970703125 178.0535583496094 78.66170501708984 L 178.0522155761719 78.66400909423828 C 178.0517883300781 78.66476440429688 178.0513305664062 78.66554260253906 178.0509033203125 78.66629791259766 L 178.0506896972656 78.66664886474609 C 178.0458831787109 78.67494964599609 178.0409240722656 78.68349456787109 178.0359649658203 78.69204711914062 L 178.0357055664062 78.6925048828125 C 178.0328979492188 78.69733428955078 178.0300140380859 78.70232391357422 178.0271606445312 78.70722961425781 L 178.0270385742188 78.70745849609375 C 178.0242767333984 78.71220397949219 178.0215759277344 78.71688079833984 178.0187683105469 78.72170257568359 L 178.0174407958984 78.72400665283203 C 177.3959350585938 79.79595947265625 175.7417449951172 82.64904022216797 175.7417449951172 82.64904022216797 C 175.4647521972656 83.12682342529297 174.8528442382812 83.28960418701172 174.3750610351562 83.01255798339844 C 173.8972778320312 82.73555755615234 173.7345123291016 82.1236572265625 174.0115356445312 81.6458740234375 L 176.5194396972656 77.32032012939453 C 176.7049255371094 77.00038909912109 177.0404815673828 76.82170867919922 177.3854827880859 76.82173919677734 Z M 172.3696899414062 85.47285461425781 C 172.5399169921875 85.47286224365234 172.7124633789062 85.51638031005859 172.8703155517578 85.60789489746094 C 173.3480987548828 85.88491821289062 173.5108642578125 86.49679565429688 173.2338409423828 86.97458648681641 C 173.2338409423828 86.97458648681641 170.7259368896484 91.30015563964844 170.7259368896484 91.30015563964844 C 170.4489440917969 91.77794647216797 169.8370513916016 91.94070434570312 169.3592529296875 91.66368103027344 C 168.8814697265625 91.38665771484375 168.7187042236328 90.7747802734375 168.9957275390625 90.29698944091797 L 171.5036315917969 85.97144317626953 C 171.6891326904297 85.65151214599609 172.0247039794922 85.47283172607422 172.3696899414062 85.47285461425781 Z M 167.3538665771484 94.12395477294922 C 167.5240783691406 94.12397003173828 167.6966552734375 94.16748809814453 167.8545074462891 94.25901794433594 C 168.3312225341797 94.53541564941406 168.4943237304688 95.14515686035156 168.2199249267578 95.62246704101562 L 165.7098236083984 99.95181274414062 C 165.4326629638672 100.4291839599609 164.8210754394531 100.5916900634766 164.3434600830078 100.3148040771484 C 163.8656768798828 100.0377807617188 163.7029113769531 99.42589569091797 163.9799194335938 98.94810485839844 L 166.4878234863281 94.62253570556641 C 166.6733245849609 94.30260467529297 167.0088806152344 94.12392425537109 167.3538665771484 94.12395477294922 Z M 162.3380584716797 102.7750701904297 C 162.5082855224609 102.7750854492188 162.6808624267578 102.818603515625 162.8387298583984 102.9101333618164 C 163.3154907226562 103.1865386962891 163.4785614013672 103.7964019775391 163.2040252685547 104.2737350463867 L 160.6942138671875 108.6026000976562 C 160.4171142578125 109.0801849365234 159.8053436279297 109.2428665161133 159.3276519775391 108.9658966064453 C 158.8498687744141 108.6888961791992 158.6871032714844 108.0769882202148 158.9641265869141 107.5992050170898 L 161.4720306396484 103.2736511230469 C 161.6575164794922 102.9537200927734 161.9930725097656 102.7750396728516 162.3380584716797 102.7750701904297 Z M 157.3222808837891 111.4261856079102 C 157.4925079345703 111.4261932373047 157.6650695800781 111.4697113037109 157.8229217529297 111.5612335205078 C 158.3007049560547 111.8382568359375 158.4634704589844 112.4501342773438 158.1864318847656 112.9279174804688 C 158.1864318847656 112.9279174804688 155.6785278320312 117.2534942626953 155.6785278320312 117.2534942626953 C 155.4015350341797 117.7312698364258 154.7896270751953 117.89404296875 154.3118438720703 117.6170120239258 C 153.8340606689453 117.3399887084961 153.6712951660156 116.7281036376953 153.9483184814453 116.2503204345703 L 156.4562225341797 111.9247741699219 C 156.6417083740234 111.6048431396484 156.977294921875 111.4261627197266 157.3222808837891 111.4261856079102 Z M 152.3064575195312 120.0772857666016 C 152.4766693115234 120.0773010253906 152.6492614746094 120.1208190917969 152.8070983886719 120.2123489379883 C 153.2848968505859 120.489372253418 153.4476470947266 121.1012573242188 153.1706237792969 121.5790405273438 C 153.1706237792969 121.5790405273438 150.6627197265625 125.9045867919922 150.6627197265625 125.9045867919922 C 150.3857269287109 126.3823699951172 149.7738494873047 126.5451354980469 149.2960357666016 126.2681350708008 C 148.8182525634766 125.9911117553711 148.6554870605469 125.3792266845703 148.9325103759766 124.9014434814453 L 151.4404144287109 120.5758666992188 C 151.6259155273438 120.2559356689453 151.9614715576172 120.0772552490234 152.3064575195312 120.0772857666016 Z M 147.2906494140625 128.7284088134766 C 147.4608612060547 128.7284240722656 147.6334381103516 128.7719421386719 147.7912902832031 128.8634643554688 C 148.2676849365234 129.1396484375 148.4308929443359 129.748779296875 148.1572723388672 130.2259521484375 L 145.6453857421875 134.5583801269531 C 145.3676147460938 135.0340728759766 144.7571258544922 135.1957244873047 144.2802429199219 134.9192199707031 C 143.8024597167969 134.6422271728516 143.6397094726562 134.0303192138672 143.9167022705078 133.5525360107422 L 146.4246063232422 129.2269897460938 C 146.610107421875 128.9070587158203 146.9456634521484 128.7283782958984 147.2906494140625 128.7284088134766 Z M 142.2748565673828 137.3795166015625 C 142.445068359375 137.3795318603516 142.6176452636719 137.4230499267578 142.7755126953125 137.5145568847656 C 143.2532348632812 137.7915496826172 143.4160003662109 138.4033050537109 143.1391448974609 138.8810577392578 L 143.1387329101562 138.8817596435547 C 143.1387329101562 138.8817749023438 143.1387176513672 138.8818054199219 143.1387023925781 138.8818206787109 L 143.138427734375 138.8823089599609 C 143.1383972167969 138.8823394775391 143.1383819580078 138.8823852539062 143.1383666992188 138.8824157714844 L 143.1382751464844 138.882568359375 C 143.1382446289062 138.8826141357422 143.1382293701172 138.8826446533203 143.1381988525391 138.8826904296875 L 143.1377868652344 138.8834228515625 C 143.1377563476562 138.8834533691406 143.1377258300781 138.8835144042969 143.1376953125 138.883544921875 L 143.1375427246094 138.8838195800781 C 143.1375427246094 138.8838195800781 143.1375427246094 138.8838348388672 143.1375427246094 138.8838348388672 L 143.1369018554688 138.8849182128906 C 143.1368713378906 138.8849792480469 143.1368255615234 138.8850555419922 143.1367797851562 138.8851318359375 L 143.13671875 138.88525390625 C 143.1365661621094 138.885498046875 143.1364135742188 138.8857727050781 143.1362609863281 138.8860473632812 L 143.1361541748047 138.88623046875 C 143.1358795166016 138.8866882324219 143.1356048583984 138.8871765136719 143.1352996826172 138.8876953125 L 143.1352844238281 138.8877258300781 C 143.1352233886719 138.8878173828125 143.1351623535156 138.8879089355469 143.1351165771484 138.8880157470703 L 143.134521484375 138.8890228271484 C 143.1344757080078 138.8891143798828 143.1344299316406 138.8891906738281 143.1343841552734 138.8892822265625 L 143.1333770751953 138.8910064697266 C 143.1332092285156 138.8913116455078 143.1330108642578 138.8916473388672 143.1328277587891 138.8919677734375 L 143.1316223144531 138.89404296875 C 143.1316223144531 138.89404296875 143.1316070556641 138.8940582275391 143.1316070556641 138.8940582275391 L 143.1307830810547 138.8954925537109 C 143.1306915283203 138.8956451416016 143.130615234375 138.8957824707031 143.1305236816406 138.8959350585938 L 143.1276092529297 138.9009552001953 C 143.1275177001953 138.901123046875 143.1274261474609 138.9012603759766 143.1273345947266 138.9014282226562 L 143.126708984375 138.9025115966797 C 143.1264038085938 138.9030303955078 143.1261138916016 138.9035491943359 143.1257934570312 138.9040832519531 L 143.1246795654297 138.906005859375 C 143.1246337890625 138.9060821533203 143.1246337890625 138.9060974121094 143.1245880126953 138.9061737060547 L 143.1207733154297 138.9127502441406 C 143.1207122802734 138.912841796875 143.1206665039062 138.9129333496094 143.12060546875 138.9130249023438 L 143.1154174804688 138.9219665527344 C 143.1154174804688 138.9219665527344 143.1153869628906 138.9220275878906 143.1153869628906 138.9220275878906 L 143.10693359375 138.9366302490234 C 143.1065521240234 138.9372863769531 143.1061401367188 138.9379730224609 143.1057586669922 138.9386444091797 L 143.1053161621094 138.9394226074219 C 143.1048889160156 138.9401245117188 143.1044464111328 138.9409027099609 143.1040344238281 138.9416198730469 L 143.1031799316406 138.9430999755859 C 143.1031036376953 138.9432373046875 143.1030120849609 138.9433898925781 143.1029357910156 138.9435272216797 L 143.1024017333984 138.9444427490234 C 143.1022033691406 138.9447937011719 143.1019592285156 138.9451904296875 143.1017608642578 138.9455413818359 L 143.1015319824219 138.9459228515625 C 143.1010131835938 138.9468078613281 143.1004943847656 138.9477233886719 143.0999755859375 138.9486236572266 L 143.0993194580078 138.9497528076172 C 143.0991668701172 138.9500122070312 143.0990447998047 138.9502258300781 143.0988922119141 138.9504852294922 L 143.0928802490234 138.9608612060547 C 143.0928344726562 138.9609375 143.0927886962891 138.9609985351562 143.0927429199219 138.9610900878906 L 143.0897521972656 138.9662628173828 C 143.089599609375 138.9664916992188 143.0895233154297 138.9666442871094 143.0893859863281 138.9668884277344 L 143.0885620117188 138.9682922363281 C 143.0884246826172 138.9685363769531 143.0883178710938 138.9687194824219 143.0881805419922 138.9689636230469 L 143.0704193115234 138.9995880126953 C 143.0702056884766 138.9999694824219 143.0699768066406 139.0003509521484 143.0697631835938 139.000732421875 L 143.0649108886719 139.0091094970703 C 143.0647277832031 139.0093994140625 143.0645599365234 139.0097045898438 143.0643920898438 139.0099945068359 L 143.0597534179688 139.0180053710938 C 143.0594482421875 139.0185089111328 143.0591735839844 139.0190124511719 143.0588684082031 139.0195159912109 L 140.6297607421875 143.2091674804688 C 140.3520965576172 143.6851348876953 139.7414245605469 143.8469085693359 139.2644348144531 143.5703430175781 C 138.7866516113281 143.2933197021484 138.6238861083984 142.6814422607422 138.9009094238281 142.2036590576172 L 141.4087982177734 137.8781127929688 C 141.5942993164062 137.5581665039062 141.9298553466797 137.3794860839844 142.2748565673828 137.3795166015625 Z M 137.2590484619141 146.0306243896484 C 137.4292602539062 146.0306396484375 137.6018524169922 146.0741577148438 137.7597045898438 146.1656799316406 C 138.2374877929688 146.4427032470703 138.4002532958984 147.0545806884766 138.1232299804688 147.5323638916016 C 138.1232299804688 147.5323638916016 135.6153259277344 151.8579254150391 135.6153259277344 151.8579254150391 C 135.3383178710938 152.3357086181641 134.7264099121094 152.4984741210938 134.2486267089844 152.2214660644531 C 133.7708435058594 151.9444427490234 133.6080780029297 151.3325653076172 133.8851013183594 150.8547515869141 L 136.3930053710938 146.5292053222656 C 136.5784912109375 146.2092742919922 136.9140625 146.0305938720703 137.2590484619141 146.0306243896484 Z M 127.0253448486328 152.3052978515625 L 132.0253448486328 152.3052978515625 C 132.57763671875 152.3052978515625 133.0253448486328 152.7530212402344 133.0253448486328 153.3052978515625 C 133.0253448486328 153.8575897216797 132.57763671875 154.3052978515625 132.0253448486328 154.3052978515625 C 132.0253448486328 154.3052978515625 127.0253448486328 154.3052978515625 127.0253448486328 154.3052978515625 C 126.4730529785156 154.3052978515625 126.0253448486328 153.8575897216797 126.0253448486328 153.3052978515625 C 126.0253448486328 152.7530212402344 126.4730529785156 152.3052978515625 127.0253448486328 152.3052978515625 Z M 117.0253448486328 152.3052978515625 L 122.0253448486328 152.3052978515625 C 122.5776290893555 152.3052978515625 123.0253448486328 152.7530212402344 123.0253448486328 153.3052978515625 C 123.0253448486328 153.8575897216797 122.5776290893555 154.3052978515625 122.0253448486328 154.3052978515625 C 122.0253448486328 154.3052978515625 117.0253448486328 154.3052978515625 117.0253448486328 154.3052978515625 C 116.4730529785156 154.3052978515625 116.0253448486328 153.8575897216797 116.0253448486328 153.3052978515625 C 116.0253448486328 152.7530212402344 116.4730529785156 152.3052978515625 117.0253448486328 152.3052978515625 Z M 107.0253448486328 152.3052978515625 L 112.0253448486328 152.3052978515625 C 112.5776290893555 152.3052978515625 113.0253448486328 152.7530212402344 113.0253448486328 153.3052978515625 C 113.0253448486328 153.8575897216797 112.5776290893555 154.3052978515625 112.0253448486328 154.3052978515625 C 112.0253448486328 154.3052978515625 107.0253448486328 154.3052978515625 107.0253448486328 154.3052978515625 C 106.4730606079102 154.3052978515625 106.0253448486328 153.8575897216797 106.0253448486328 153.3052978515625 C 106.0253448486328 152.7530212402344 106.4730606079102 152.3052978515625 107.0253448486328 152.3052978515625 Z M 97.02534484863281 152.3052978515625 L 102.0253448486328 152.3052978515625 C 102.5776290893555 152.3052978515625 103.0253448486328 152.7530212402344 103.0253448486328 153.3052978515625 C 103.0253448486328 153.8575897216797 102.5776290893555 154.3052978515625 102.0253448486328 154.3052978515625 C 102.0253448486328 154.3052978515625 97.02534484863281 154.3052978515625 97.02534484863281 154.3052978515625 C 96.47306060791016 154.3052978515625 96.02534484863281 153.8575897216797 96.02534484863281 153.3052978515625 C 96.02534484863281 152.7530212402344 96.47306060791016 152.3052978515625 97.02534484863281 152.3052978515625 Z M 87.02534484863281 152.3052978515625 L 92.02534484863281 152.3052978515625 C 92.57762908935547 152.3052978515625 93.02534484863281 152.7530212402344 93.02534484863281 153.3052978515625 C 93.02534484863281 153.8575897216797 92.57762908935547 154.3052978515625 92.02534484863281 154.3052978515625 C 92.02534484863281 154.3052978515625 87.02534484863281 154.3052978515625 87.02534484863281 154.3052978515625 C 86.47306060791016 154.3052978515625 86.02534484863281 153.8575897216797 86.02534484863281 153.3052978515625 C 86.02534484863281 152.7530212402344 86.47306060791016 152.3052978515625 87.02534484863281 152.3052978515625 Z M 77.02534484863281 152.3052978515625 L 82.02534484863281 152.3052978515625 C 82.57762908935547 152.3052978515625 83.02534484863281 152.7530212402344 83.02534484863281 153.3052978515625 C 83.02534484863281 153.8575897216797 82.57762908935547 154.3052978515625 82.02534484863281 154.3052978515625 C 82.02534484863281 154.3052978515625 77.02534484863281 154.3052978515625 77.02534484863281 154.3052978515625 C 76.47306060791016 154.3052978515625 76.02534484863281 153.8575897216797 76.02534484863281 153.3052978515625 C 76.02534484863281 152.7530212402344 76.47306060791016 152.3052978515625 77.02534484863281 152.3052978515625 Z M 67.02534484863281 152.3052978515625 L 72.02534484863281 152.3052978515625 C 72.57762908935547 152.3052978515625 73.02534484863281 152.7530212402344 73.02534484863281 153.3052978515625 C 73.02534484863281 153.8575897216797 72.57762908935547 154.3052978515625 72.02534484863281 154.3052978515625 C 72.02534484863281 154.3052978515625 67.02534484863281 154.3052978515625 67.02534484863281 154.3052978515625 C 66.47306060791016 154.3052978515625 66.02534484863281 153.8575897216797 66.02534484863281 153.3052978515625 C 66.02534484863281 152.7530212402344 66.47306060791016 152.3052978515625 67.02534484863281 152.3052978515625 Z M 57.02534484863281 152.3052978515625 L 62.02534484863281 152.3052978515625 C 62.57762908935547 152.3052978515625 63.02534484863281 152.7530212402344 63.02534484863281 153.3052978515625 C 63.02534484863281 153.8575897216797 62.57762908935547 154.3052978515625 62.02534484863281 154.3052978515625 C 62.02534484863281 154.3052978515625 57.02534484863281 154.3052978515625 57.02534484863281 154.3052978515625 C 56.47306060791016 154.3052978515625 56.02534484863281 153.8575897216797 56.02534484863281 153.3052978515625 C 56.02534484863281 152.7530212402344 56.47306060791016 152.3052978515625 57.02534484863281 152.3052978515625 Z M 47.02534484863281 152.3052978515625 L 52.02534484863281 152.3052978515625 C 52.57762908935547 152.3052978515625 53.02534484863281 152.7530212402344 53.02534484863281 153.3052978515625 C 53.02534484863281 153.8575897216797 52.57762908935547 154.3052978515625 52.02534484863281 154.3052978515625 C 52.02534484863281 154.3052978515625 47.02534484863281 154.3052978515625 47.02534484863281 154.3052978515625 C 46.47305297851562 154.3052978515625 46.02534484863281 153.8575897216797 46.02534484863281 153.3052978515625 C 46.02534484863281 152.7530212402344 46.47305297851562 152.3052978515625 47.02534484863281 152.3052978515625 Z M 41.73072814941406 146.1363525390625 C 42.07568359375 146.1363525390625 42.41128540039062 146.3150177001953 42.59677124023438 146.6349487304688 L 45.10467529296875 150.9604949951172 C 45.38168334960938 151.4382781982422 45.21891784667969 152.0501556396484 44.74113464355469 152.3271789550781 C 44.26467895507812 152.6034393310547 43.65476989746094 152.4423522949219 43.37669372558594 151.9675140380859 L 40.86509704589844 147.6355895996094 C 40.59013366699219 147.1581726074219 40.75314331054688 146.5479278564453 41.23008728027344 146.2713928222656 C 41.38796997070312 146.1798553466797 41.56047058105469 146.1363525390625 41.73072814941406 146.1363525390625 Z M 36.71492004394531 137.4852447509766 C 37.05987548828125 137.4852447509766 37.39547729492188 137.6639251708984 37.58096313476562 137.9838256835938 L 40.0888671875 142.3093719482422 C 40.36587524414062 142.7871551513672 40.203125 143.3990631103516 39.725341796875 143.6760559082031 C 39.24752807617188 143.9530944824219 38.6356201171875 143.7903137207031 38.35865783691406 143.3125305175781 C 38.35865783691406 143.3125305175781 35.85075378417969 138.9869842529297 35.85075378417969 138.9869842529297 C 35.57373046875 138.5092010498047 35.73648071289062 137.8972930908203 36.21427917480469 137.6203002929688 C 36.37214660644531 137.5287628173828 36.544677734375 137.4852447509766 36.71492004394531 137.4852447509766 Z M 31.69911193847656 128.8341217041016 C 32.04408264160156 128.8341217041016 32.37968444824219 129.0128021240234 32.56515502929688 129.3327026367188 L 35.07305908203125 133.6582794189453 C 35.35008239746094 134.1360626220703 35.18731689453125 134.7479400634766 34.70953369140625 135.0249633789062 C 34.23171997070312 135.3019714355469 33.61981201171875 135.1391906738281 33.34284973144531 134.6614227294922 C 33.34284973144531 134.6614227294922 30.83494567871094 130.3358764648438 30.83494567871094 130.3358764648438 C 30.55792236328125 129.8580932617188 30.72067260742188 129.2462005615234 31.19845581054688 128.9691772460938 C 31.35633850097656 128.8776397705078 31.52886962890625 128.8341217041016 31.69911193847656 128.8341217041016 Z M 26.68330383300781 120.1830139160156 C 27.02827453613281 120.1830139160156 27.36387634277344 120.3616943359375 27.54934692382812 120.6816101074219 L 30.0572509765625 125.0071563720703 C 30.33427429199219 125.4849395751953 30.1715087890625 126.0968246459961 29.6937255859375 126.3738479614258 C 29.21647644042969 126.6505508422852 28.60546875 126.4884796142578 28.3280029296875 126.0119781494141 L 26.6878662109375 123.1831359863281 C 26.68757629394531 123.1826324462891 26.68722534179688 123.182014465332 26.68693542480469 123.181510925293 L 26.6630859375 123.1403884887695 C 26.66294860839844 123.14013671875 26.66294860839844 123.1401519775391 26.66281127929688 123.1399002075195 L 26.65657043457031 123.1291427612305 C 26.65628051757812 123.1286392211914 26.656005859375 123.1281661987305 26.65571594238281 123.1276702880859 L 26.65252685546875 123.1221618652344 C 26.65252685546875 123.1221618652344 26.65243530273438 123.1220016479492 26.65243530273438 123.1220016479492 L 26.6458740234375 123.110710144043 C 26.64544677734375 123.1099624633789 26.64515686035156 123.1094512939453 26.64471435546875 123.1087036132812 L 26.6298828125 123.0831146240234 C 26.62922668457031 123.0819931030273 26.62861633300781 123.0809478759766 26.62797546386719 123.0798263549805 L 26.59721374511719 123.0267715454102 C 26.59713745117188 123.0266494750977 26.59710693359375 123.0265731811523 26.59703063964844 123.0264511108398 L 26.59512329101562 123.0231704711914 C 26.59434509277344 123.0218124389648 26.59341430664062 123.0202331542969 26.59263610839844 123.0188751220703 L 26.58714294433594 123.009407043457 C 26.58708190917969 123.0092849731445 26.5869140625 123.0090179443359 26.58685302734375 123.0088958740234 L 26.58148193359375 122.9996490478516 C 26.58064270019531 122.9981842041016 26.57986450195312 122.9968490600586 26.57901000976562 122.9953765869141 L 26.57766723632812 122.9930572509766 C 26.57135009765625 122.9821701049805 26.56521606445312 122.9715881347656 26.55894470214844 122.9607620239258 L 26.55693054199219 122.9572906494141 C 26.14244079589844 122.2424011230469 25.81912231445312 121.6847534179688 25.81912231445312 121.6847534179688 C 25.54209899902344 121.2069702148438 25.70486450195312 120.595085144043 26.18264770507812 120.3180618286133 C 26.34054565429688 120.2265319824219 26.5130615234375 120.1830139160156 26.68330383300781 120.1830139160156 Z M 21.66751098632812 111.5319061279297 C 22.01246643066406 111.5319061279297 22.34806823730469 111.7105865478516 22.53355407714844 112.0304870605469 L 25.04145812988281 116.3560333251953 C 25.31846618652344 116.8338241577148 25.15570068359375 117.4457244873047 24.67791748046875 117.7227325439453 C 24.2008056640625 117.9993667602539 23.58995056152344 117.8374176025391 23.3123779296875 117.3611907958984 L 20.80107116699219 113.0297622680664 C 20.52717590332031 112.5525436401367 20.69036865234375 111.9432220458984 21.1668701171875 111.6669616699219 C 21.32475280761719 111.5754241943359 21.49726867675781 111.5319061279297 21.66751098632812 111.5319061279297 Z M 16.65170288085938 102.8807830810547 C 16.99665832519531 102.8807907104492 17.33226013183594 103.0594635009766 17.51774597167969 103.3793716430664 L 20.02565002441406 107.7049407958984 C 20.30265808105469 108.1827239990234 20.13990783691406 108.7946090698242 19.66212463378906 109.0716323852539 C 19.18510437011719 109.3481826782227 18.57440185546875 109.1864318847656 18.29676818847656 108.7103881835938 L 17.35270690917969 107.0821075439453 C 17.35270690917969 107.0821075439453 17.35255432128906 107.0818481445312 17.35255432128906 107.0818481445312 L 17.34344482421875 107.0661315917969 C 17.34269714355469 107.0648498535156 17.34199523925781 107.0636444091797 17.34124755859375 107.0623626708984 L 17.33882141113281 107.0581665039062 C 17.33851623535156 107.0576477050781 17.33816528320312 107.0570373535156 17.33787536621094 107.0565185546875 L 17.33485412597656 107.0513153076172 C 17.33485412597656 107.0513153076172 17.334716796875 107.0510864257812 17.334716796875 107.0510864257812 L 17.33122253417969 107.045051574707 C 16.62435913085938 105.8258743286133 15.78753662109375 104.3825378417969 15.78753662109375 104.3825378417969 C 15.51051330566406 103.9047546386719 15.67327880859375 103.2928695678711 16.15106201171875 103.0158462524414 C 16.30894470214844 102.9243011474609 16.48146057128906 102.8807830810547 16.65170288085938 102.8807830810547 Z M 11.63587951660156 94.22969055175781 C 11.9808349609375 94.22969055175781 12.31646728515625 94.40837097167969 12.50193786621094 94.728271484375 L 15.00984191894531 99.05381774902344 C 15.286865234375 99.53160858154297 15.12409973144531 100.1434936523438 14.64631652832031 100.4205169677734 C 14.16848754882812 100.6975555419922 13.55662536621094 100.5347595214844 13.27963256835938 100.0569915771484 C 13.27963256835938 100.0569915771484 10.771728515625 95.73141479492188 10.771728515625 95.73141479492188 C 10.49470520019531 95.25363159179688 10.65745544433594 94.64175415039062 11.13525390625 94.36473083496094 C 11.29313659667969 94.273193359375 11.46563720703125 94.22967529296875 11.63587951660156 94.22969055175781 Z M 6.620086669921875 85.57857513427734 C 6.965057373046875 85.57857513427734 7.3006591796875 85.75725555419922 7.486129760742188 86.07715606689453 L 9.994033813476562 90.40270233154297 C 10.27105712890625 90.8804931640625 10.10829162597656 91.49239349365234 9.630508422851562 91.76939392089844 C 9.1527099609375 92.04641723632812 8.540847778320312 91.88365173339844 8.263824462890625 91.40586853027344 C 8.263824462890625 91.40586853027344 8.042922973632812 91.02487945556641 7.732192993164062 90.48895263671875 L 7.731674194335938 90.488037109375 C 7.723678588867188 90.47425842285156 7.7158203125 90.46070861816406 7.707717895507812 90.44672393798828 L 7.706817626953125 90.44515991210938 C 7.702987670898438 90.43856048583984 7.699203491210938 90.43202972412109 7.695343017578125 90.42538452148438 L 7.694183349609375 90.42338562011719 C 7.692489624023438 90.42045593261719 7.690826416015625 90.4176025390625 7.689132690429688 90.41466522216797 L 7.687698364257812 90.41220092773438 C 7.687240600585938 90.41140747070312 7.68682861328125 90.41069030761719 7.686370849609375 90.40990447998047 L 7.67803955078125 90.39553833007812 C 7.677581787109375 90.39473724365234 7.6771240234375 90.39396667480469 7.676666259765625 90.39316558837891 L 7.675445556640625 90.39105224609375 C 7.673858642578125 90.38832092285156 7.67218017578125 90.38542938232422 7.67059326171875 90.3826904296875 L 7.66748046875 90.37733459472656 C 7.666351318359375 90.37538146972656 7.665206909179688 90.37340545654297 7.664077758789062 90.3714599609375 L 7.639846801757812 90.32965087890625 C 7.639511108398438 90.32907104492188 7.63909912109375 90.32838439941406 7.638763427734375 90.32780456542969 L 7.626998901367188 90.30751037597656 C 7.62646484375 90.30657958984375 7.625900268554688 90.30561828613281 7.6253662109375 90.3046875 L 7.62176513671875 90.2984619140625 C 7.621353149414062 90.29776000976562 7.620956420898438 90.29706573486328 7.62054443359375 90.29636383056641 L 7.616683959960938 90.28971862792969 C 7.615188598632812 90.28713989257812 7.61383056640625 90.28478240966797 7.612319946289062 90.28219604492188 L 7.610092163085938 90.27833557128906 C 7.609878540039062 90.27798461914062 7.609542846679688 90.27738952636719 7.609329223632812 90.27703857421875 L 5.754302978515625 87.07752990722656 C 5.479537963867188 86.60015106201172 5.642593383789062 85.99008941650391 6.11944580078125 85.71363067626953 C 6.277313232421875 85.62209320068359 6.449844360351562 85.57857513427734 6.620086669921875 85.57857513427734 Z M 1.604293823242188 76.92745208740234 C 1.949249267578125 76.92745971679688 2.284866333007812 77.10613250732422 2.4703369140625 77.42604064941406 L 4.978256225585938 81.75160980224609 C 5.2552490234375 82.22939300537109 5.092483520507812 82.84127807617188 4.614700317382812 83.11830139160156 C 4.13690185546875 83.39529418945312 3.5250244140625 83.23255920410156 3.248016357421875 82.75475311279297 C 3.248016357421875 82.75475311279297 3.161788940429688 82.60604095458984 3.021224975585938 82.36360168457031 L 3.020751953125 82.36278533935547 C 3.02020263671875 82.36183166503906 3.019668579101562 82.36090850830078 3.01910400390625 82.35994720458984 L 3.013671875 82.3505859375 C 3.013351440429688 82.35002136230469 3.012954711914062 82.34934997558594 3.01263427734375 82.34877777099609 L 3.011795043945312 82.34734344482422 C 3.010528564453125 82.34515380859375 3.009231567382812 82.34292602539062 3.007965087890625 82.34072113037109 L 3.007247924804688 82.33949279785156 C 3.004592895507812 82.33491516113281 3.001937866210938 82.33033752441406 2.999252319335938 82.32569885253906 L 2.997772216796875 82.32313537597656 C 2.994964599609375 82.31832122802734 2.992263793945312 82.31364440917969 2.989425659179688 82.30876159667969 L 2.9886474609375 82.30740356445312 C 2.987319946289062 82.30513000488281 2.985931396484375 82.30271148681641 2.984603881835938 82.30042266845703 L 2.984130859375 82.29962158203125 C 2.983047485351562 82.29775238037109 2.981903076171875 82.29578399658203 2.980819702148438 82.29390716552734 L 2.9786376953125 82.29014587402344 C 2.978286743164062 82.28954315185547 2.977935791015625 82.2889404296875 2.977584838867188 82.28833770751953 L 2.97711181640625 82.28751373291016 C 2.974822998046875 82.28356170654297 2.972579956054688 82.27968597412109 2.970260620117188 82.27570343017578 L 2.969863891601562 82.27500915527344 C 2.967193603515625 82.27041625976562 2.964523315429688 82.26581573486328 2.961837768554688 82.26116180419922 L 2.959228515625 82.25666046142578 C 2.958145141601562 82.25480651855469 2.95709228515625 82.25299835205078 2.956024169921875 82.25113677978516 L 2.954803466796875 82.24903106689453 C 2.95367431640625 82.24708557128906 2.952590942382812 82.24523162841797 2.951461791992188 82.24327087402344 L 2.949310302734375 82.23957061767578 C 2.948806762695312 82.23868560791016 2.948318481445312 82.23783874511719 2.947799682617188 82.23694610595703 L 2.944381713867188 82.23105621337891 C 2.94427490234375 82.23087310791016 2.944198608398438 82.23075103759766 2.944091796875 82.23057556152344 L 0.7384185791015625 78.42628479003906 C 0.4637451171875 77.94892120361328 0.6268310546875 77.33898162841797 1.103652954101562 77.06251525878906 C 1.26153564453125 76.97097015380859 1.434051513671875 76.92745208740234 1.604293823242188 76.92745208740234 Z M 5.141693115234375 69.27951049804688 C 5.311920166015625 69.27952575683594 5.4844970703125 69.32304382324219 5.642349243164062 69.41455841064453 C 6.120147705078125 69.69158172607422 6.28289794921875 70.303466796875 6.005889892578125 70.78125 L 3.49798583984375 75.10682678222656 C 3.220962524414062 75.58460998535156 2.609085083007812 75.74736022949219 2.131301879882812 75.47034454345703 C 1.65350341796875 75.19332122802734 1.490753173828125 74.58144378662109 1.767776489257812 74.10365295410156 C 1.767776489257812 74.10365295410156 2.336868286132812 73.12208557128906 2.93280029296875 72.09422302246094 L 2.934356689453125 72.091552734375 C 2.937637329101562 72.08588409423828 2.94085693359375 72.080322265625 2.94415283203125 72.07465362548828 L 2.946365356445312 72.07083129882812 C 2.946365356445312 72.07083129882812 2.946456909179688 72.07066345214844 2.946456909179688 72.07066345214844 L 4.278244018554688 69.77365112304688 C 4.464263916015625 69.45651245117188 4.798309326171875 69.27947998046875 5.141693115234375 69.27951049804688 Z M 10.15750122070312 60.62841033935547 C 10.32772827148438 60.62842559814453 10.50030517578125 60.67194366455078 10.65815734863281 60.76346588134766 C 11.13594055175781 61.04046630859375 11.2987060546875 61.65237426757812 11.02169799804688 62.13015747070312 L 8.5137939453125 66.45570373535156 C 8.236770629882812 66.93347930908203 7.624893188476562 67.09625244140625 7.147109985351562 66.81922912597656 C 6.670455932617188 66.54288482666016 6.507354736328125 65.93321228027344 6.781600952148438 65.4559326171875 L 9.292098999023438 61.12590026855469 C 9.47772216796875 60.80662536621094 9.812896728515625 60.62837219238281 10.15750122070312 60.62841033935547 Z M 15.17330932617188 51.97728729248047 C 15.34353637695312 51.97730255126953 15.51611328125 52.02082061767578 15.67396545410156 52.11235046386719 C 16.15174865722656 52.38937377929688 16.31451416015625 53.00125122070312 16.03749084472656 53.47903442382812 L 13.52958679199219 57.80458831787109 C 13.2525634765625 58.28237915039062 12.64065551757812 58.44514465332031 12.16288757324219 58.16812896728516 C 11.68510437011719 57.89110565185547 11.5223388671875 57.27922821044922 11.79936218261719 56.80144500732422 C 11.79936218261719 56.80144500732422 12.50636291503906 55.58203887939453 13.16958618164062 54.43811798095703 L 13.17138671875 54.43500518798828 C 13.18077087402344 54.41883087158203 13.19023132324219 54.40250396728516 13.19960021972656 54.38636779785156 L 13.20016479492188 54.3853759765625 C 13.20951843261719 54.36923980712891 13.21885681152344 54.3531494140625 13.22817993164062 54.33705902099609 L 13.22987365722656 54.33414459228516 C 13.23434448242188 54.32642364501953 13.23881530761719 54.31871032714844 13.2432861328125 54.31100463867188 L 13.24441528320312 54.30906677246094 C 13.24630737304688 54.30580139160156 13.24813842773438 54.30263519287109 13.25003051757812 54.29936981201172 L 13.25204467773438 54.29591369628906 C 13.25363159179688 54.29317474365234 13.25526428222656 54.29035186767578 13.25685119628906 54.28761291503906 L 13.25971984863281 54.28265380859375 C 13.26153564453125 54.27952575683594 13.26339721679688 54.27632904052734 13.26521301269531 54.27320098876953 L 13.26564025878906 54.27244567871094 C 13.26760864257812 54.26905822753906 13.26963806152344 54.26556396484375 13.27159118652344 54.26217651367188 L 13.27418518066406 54.25772094726562 C 13.27456665039062 54.25707244873047 13.27490234375 54.25647735595703 13.27528381347656 54.25582122802734 L 13.30279541015625 54.20836639404297 C 13.30459594726562 54.20525360107422 13.30628967285156 54.20233154296875 13.30809020996094 54.19922637939453 L 13.31005859375 54.19584655761719 C 13.31050109863281 54.19507598876953 13.31082153320312 54.19454193115234 13.31126403808594 54.19376373291016 L 13.31787109375 54.182373046875 C 13.31787109375 54.182373046875 13.31794738769531 54.18224334716797 13.31794738769531 54.18224334716797 L 13.32063293457031 54.1776123046875 C 13.32115173339844 54.17671203613281 13.32156372070312 54.17599487304688 13.32209777832031 54.17508697509766 L 13.33186340332031 54.15822601318359 C 13.33245849609375 54.15719604492188 13.33294677734375 54.15634918212891 13.33355712890625 54.15531921386719 L 14.30793762207031 52.47472381591797 C 14.49357604980469 52.15550231933594 14.8287353515625 51.97725677490234 15.17330932617188 51.97728729248047 Z M 20.18914794921875 43.32618713378906 C 20.35935974121094 43.32619476318359 20.53192138671875 43.36971282958984 20.68977355957031 43.46122741699219 C 21.16755676269531 43.73825073242188 21.330322265625 44.35013580322266 21.05329895019531 44.82791900634766 L 18.54539489746094 49.15348815917969 C 18.26838684082031 49.63127136230469 17.656494140625 49.79402160644531 17.17869567871094 49.51701354980469 C 16.70091247558594 49.239990234375 16.53814697265625 48.62810516357422 16.81517028808594 48.15032196044922 C 16.81517028808594 48.15032196044922 19.32308959960938 43.82477569580078 19.32308959960938 43.82477569580078 C 19.50856018066406 43.50484466552734 19.84414672851562 43.32616424560547 20.18914794921875 43.32618713378906 Z M 25.20492553710938 34.67507171630859 C 25.37515258789062 34.67508697509766 25.5477294921875 34.71860504150391 25.70558166503906 34.81013488769531 C 26.18336486816406 35.08713531494141 26.34613037109375 35.69903564453125 26.06910705566406 36.17682647705078 L 23.56120300292969 40.50237274169922 C 23.2841796875 40.98015594482422 22.67228698730469 41.14291381835938 22.19450378417969 40.86589813232422 C 21.71672058105469 40.58889770507812 21.55397033691406 39.97698974609375 21.83099365234375 39.49920654296875 C 21.83099365234375 39.49920654296875 24.33889770507812 35.17366027832031 24.33889770507812 35.17366027832031 C 24.52436828613281 34.85372161865234 24.85993957519531 34.67504119873047 25.20492553710938 34.67507171630859 Z M 30.22071838378906 26.02395629882812 C 30.39093017578125 26.02397155761719 30.56352233886719 26.06748962402344 30.72137451171875 26.15901184082031 C 31.19915771484375 26.43603515625 31.36190795898438 27.04792022705078 31.08491516113281 27.52570343017578 L 28.57701110839844 31.85124969482422 C 28.29998779296875 32.32908630371094 27.68807983398438 32.49177551269531 27.2103271484375 32.21479797363281 C 26.73348999023438 31.93833160400391 26.57041931152344 31.328369140625 26.8450927734375 30.85101318359375 L 29.3570556640625 26.51844787597656 C 29.54304504394531 26.20109558105469 29.87721252441406 26.02392578125 30.22071838378906 26.02395629882812 Z M 35.23655700683594 17.37284851074219 C 35.40676879882812 17.37286376953125 35.57933044433594 17.4163818359375 35.7371826171875 17.50788879394531 C 36.2149658203125 17.784912109375 36.37773132324219 18.39680480957031 36.1007080078125 18.87460327148438 L 33.59281921386719 23.20014953613281 C 33.3157958984375 23.67794799804688 32.70391845703125 23.8406982421875 32.22613525390625 23.56367492675781 C 31.74928283691406 23.28721618652344 31.58621215820312 22.67727661132812 31.86088562011719 22.19992065429688 L 34.225341796875 18.12178039550781 C 34.22561645507812 18.12130737304688 34.22589111328125 18.12083435058594 34.22616577148438 18.12037658691406 L 34.23115539550781 18.11174011230469 C 34.23115539550781 18.11174011230469 34.23118591308594 18.1116943359375 34.23118591308594 18.1116943359375 L 34.26982116699219 18.04507446289062 C 34.27043151855469 18.04402160644531 34.27104187011719 18.04296875 34.27165222167969 18.04191589355469 L 34.27279663085938 18.03993225097656 C 34.27296447753906 18.03965759277344 34.27305603027344 18.03948974609375 34.27322387695312 18.03921508789062 L 34.27590942382812 18.03456115722656 C 34.27607727050781 18.03428649902344 34.27621459960938 18.03404235839844 34.2763671875 18.03376770019531 L 34.27699279785156 18.03268432617188 C 34.2772216796875 18.03231811523438 34.27748107910156 18.0318603515625 34.27769470214844 18.03147888183594 L 34.28042602539062 18.02676391601562 C 34.28045654296875 18.02671813964844 34.28047180175781 18.02670288085938 34.28050231933594 18.02664184570312 L 34.28173828125 18.02450561523438 C 34.28224182128906 18.02365112304688 34.28279113769531 18.02268981933594 34.28327941894531 18.0218505859375 L 34.29159545898438 18.00750732421875 C 34.29182434082031 18.00711059570312 34.29209899902344 18.00665283203125 34.29232788085938 18.00624084472656 L 34.29310607910156 18.00489807128906 C 34.29377746582031 18.00375366210938 34.29444885253906 18.00257873535156 34.29510498046875 18.00144958496094 L 34.29562377929688 18.00057983398438 C 34.29609680175781 17.99974060058594 34.29653930664062 17.99899291992188 34.29701232910156 17.9981689453125 L 34.29879760742188 17.99508666992188 C 34.30030822753906 17.99249267578125 34.3017578125 17.98997497558594 34.30322265625 17.98745727539062 L 34.30352783203125 17.98692321777344 C 34.30474853515625 17.98483276367188 34.30599975585938 17.982666015625 34.30717468261719 17.98063659667969 L 34.30909729003906 17.97731018066406 C 34.30912780761719 17.97726440429688 34.3092041015625 17.97714233398438 34.30921936035156 17.97709655761719 L 34.30982971191406 17.97605895996094 C 34.31263732910156 17.97122192382812 34.31533813476562 17.966552734375 34.31796264648438 17.9620361328125 L 34.3182373046875 17.96156311035156 C 34.32109069824219 17.95663452148438 34.32382202148438 17.95191955566406 34.32646179199219 17.94737243652344 L 34.32734680175781 17.94584655761719 C 34.32859802246094 17.94369506835938 34.32986450195312 17.94151306152344 34.3310546875 17.939453125 L 34.33113098144531 17.9393310546875 C 34.33242797851562 17.93707275390625 34.33370971679688 17.93487548828125 34.33494567871094 17.9327392578125 L 34.33512878417969 17.93241882324219 C 34.33634948730469 17.93032836914062 34.33755493164062 17.92825317382812 34.33871459960938 17.92625427246094 L 34.33885192871094 17.92601013183594 C 34.33984375 17.92428588867188 34.34080505371094 17.92263793945312 34.34176635742188 17.92098999023438 L 34.3433837890625 17.91818237304688 C 34.34356689453125 17.91787719726562 34.34376525878906 17.91752624511719 34.34393310546875 17.917236328125 L 34.34405517578125 17.91702270507812 C 34.34788513183594 17.91041564941406 34.351318359375 17.90451049804688 34.35433959960938 17.8992919921875 L 34.35464477539062 17.89877319335938 C 34.35763549804688 17.89361572265625 34.36021423339844 17.88916015625 34.36238098144531 17.88543701171875 L 34.36238098144531 17.88543701171875 C 34.36257934570312 17.88508605957031 34.36274719238281 17.88478088378906 34.36294555664062 17.88446044921875 L 34.36344909667969 17.88357543945312 C 34.36456298828125 17.88165283203125 34.36555480957031 17.87994384765625 34.36640930175781 17.87847900390625 L 34.36642456054688 17.87844848632812 C 34.36729431152344 17.876953125 34.36802673339844 17.87570190429688 34.36860656738281 17.87467956542969 L 34.36875915527344 17.87443542480469 C 34.36929321289062 17.87348937988281 34.36972045898438 17.87277221679688 34.37001037597656 17.87226867675781 L 34.37005615234375 17.8721923828125 C 34.37017822265625 17.87197875976562 34.37026977539062 17.87181091308594 34.37034606933594 17.87168884277344 L 34.37037658691406 17.87162780761719 C 34.37040710449219 17.87156677246094 34.37043762207031 17.87153625488281 34.37045288085938 17.87150573730469 L 34.37046813964844 17.87149047851562 C 34.37046813964844 17.87147521972656 34.37046813964844 17.8714599609375 34.3704833984375 17.8714599609375 L 34.37052917480469 17.87136840820312 C 34.55604553222656 17.55148315429688 34.8916015625 17.37283325195312 35.23655700683594 17.37284851074219 Z M 40.25233459472656 8.72174072265625 C 40.42256164550781 8.721755981445312 40.59513854980469 8.765274047851562 40.75299072265625 8.856796264648438 C 41.23077392578125 9.133804321289062 41.39353942871094 9.745697021484375 41.11651611328125 10.22349548339844 L 38.60861206054688 14.54904174804688 C 38.33160400390625 15.02684020996094 37.71968078613281 15.1895751953125 37.24191284179688 14.91256713867188 C 36.76512145996094 14.63613891601562 36.60205078125 14.02621459960938 36.87667846679688 13.54884338378906 L 39.31721496582031 9.3394775390625 C 39.3172607421875 9.339385986328125 39.31727600097656 9.339370727539062 39.31733703613281 9.339279174804688 L 39.32736206054688 9.321975708007812 C 39.32778930664062 9.32122802734375 39.32826232910156 9.320419311523438 39.32868957519531 9.319686889648438 L 39.3297119140625 9.317916870117188 C 39.32978820800781 9.317794799804688 39.32989501953125 9.317611694335938 39.32997131347656 9.317489624023438 L 39.33084106445312 9.31597900390625 C 39.33090209960938 9.31585693359375 39.33100891113281 9.315689086914062 39.33108520507812 9.315567016601562 L 39.33209228515625 9.313812255859375 C 39.33216857910156 9.313690185546875 39.33222961425781 9.313583374023438 39.33230590820312 9.313461303710938 L 39.33540344238281 9.308090209960938 C 39.33555603027344 9.307846069335938 39.33570861816406 9.307571411132812 39.33586120605469 9.307327270507812 L 39.33647155761719 9.3062744140625 C 39.33674621582031 9.3057861328125 39.3370361328125 9.305267333984375 39.33732604980469 9.304794311523438 L 39.33732604980469 9.304779052734375 C 39.33758544921875 9.304336547851562 39.33786010742188 9.303863525390625 39.33811950683594 9.303421020507812 L 39.33888244628906 9.302108764648438 C 39.33908081054688 9.3017578125 39.33926391601562 9.301437377929688 39.3394775390625 9.30108642578125 L 39.33955383300781 9.300933837890625 C 39.33982849121094 9.300460815429688 39.34010314941406 9.29998779296875 39.34037780761719 9.299514770507812 L 39.34526062011719 9.291091918945312 C 39.34567260742188 9.290390014648438 39.34608459472656 9.289688110351562 39.34648132324219 9.288986206054688 L 39.34730529785156 9.287567138671875 C 39.347412109375 9.287384033203125 39.34748840332031 9.287261962890625 39.34759521484375 9.287078857421875 L 39.34820556640625 9.286026000976562 C 39.34834289550781 9.285781860351562 39.34849548339844 9.2855224609375 39.34864807128906 9.285263061523438 L 39.34910583496094 9.284469604492188 C 39.34933471679688 9.284088134765625 39.34954833984375 9.283706665039062 39.34977722167969 9.2833251953125 L 39.35008239746094 9.282791137695312 C 39.35020446777344 9.282577514648438 39.35029602050781 9.28240966796875 39.35041809082031 9.282196044921875 L 39.35200500488281 9.27947998046875 C 39.35215759277344 9.279205322265625 39.35227966308594 9.27899169921875 39.35243225097656 9.278717041015625 L 39.35310363769531 9.277572631835938 C 39.35319519042969 9.27740478515625 39.35330200195312 9.277236938476562 39.3533935546875 9.277069091796875 L 39.35678100585938 9.271240234375 C 39.3568115234375 9.27117919921875 39.35684204101562 9.2711181640625 39.35688781738281 9.27105712890625 L 39.36053466796875 9.264755249023438 C 39.36074829101562 9.264404296875 39.3609619140625 9.264022827148438 39.36116027832031 9.263671875 L 39.36175537109375 9.262649536132812 C 39.36213684082031 9.261993408203125 39.362548828125 9.261276245117188 39.36293029785156 9.2606201171875 L 39.36334228515625 9.259933471679688 C 39.36369323730469 9.259307861328125 39.364013671875 9.258743286132812 39.36436462402344 9.258148193359375 L 39.36553955078125 9.256134033203125 C 39.36569213867188 9.255859375 39.36585998535156 9.255569458007812 39.36601257324219 9.255294799804688 L 39.36618041992188 9.255020141601562 C 39.36659240722656 9.254318237304688 39.36697387695312 9.253646850585938 39.36738586425781 9.252944946289062 L 39.36773681640625 9.252349853515625 C 39.36810302734375 9.251708984375 39.36846923828125 9.251083374023438 39.36882019042969 9.250457763671875 L 39.36907958984375 9.250015258789062 C 39.36921691894531 9.249786376953125 39.36933898925781 9.24957275390625 39.36946105957031 9.249359130859375 L 39.37113952636719 9.2464599609375 C 39.3712158203125 9.246322631835938 39.37127685546875 9.2462158203125 39.37136840820312 9.246078491210938 L 39.3717041015625 9.2454833984375 C 39.37205505371094 9.244873046875 39.37237548828125 9.244338989257812 39.37271118164062 9.243743896484375 L 39.37289428710938 9.243438720703125 C 39.37359619140625 9.242233276367188 39.37425231933594 9.241104125976562 39.37489318847656 9.239990234375 L 39.37530517578125 9.239288330078125 C 39.37557983398438 9.238800048828125 39.37583923339844 9.238357543945312 39.37611389160156 9.237884521484375 L 39.37631225585938 9.237533569335938 C 39.37655639648438 9.237106323242188 39.37681579589844 9.2366943359375 39.37704467773438 9.23626708984375 L 39.37733459472656 9.235794067382812 C 39.37751770019531 9.2354736328125 39.37770080566406 9.235153198242188 39.37788391113281 9.234832763671875 L 39.38011169433594 9.230987548828125 C 39.38015747070312 9.23089599609375 39.38023376464844 9.23077392578125 39.38027954101562 9.230697631835938 L 39.38056945800781 9.230209350585938 C 39.38056945800781 9.230209350585938 39.38058471679688 9.230178833007812 39.38058471679688 9.230178833007812 L 39.38130187988281 9.22894287109375 C 39.38133239746094 9.228897094726562 39.38134765625 9.228851318359375 39.38137817382812 9.228805541992188 L 39.381591796875 9.228439331054688 C 39.38169860839844 9.228271484375 39.38180541992188 9.228073120117188 39.38191223144531 9.227890014648438 L 39.3824462890625 9.226959228515625 C 39.38253784179688 9.226806640625 39.38264465332031 9.22662353515625 39.38272094726562 9.226486206054688 L 39.3829345703125 9.22613525390625 C 39.38308715820312 9.225860595703125 39.38323974609375 9.225601196289062 39.38337707519531 9.225357055664062 L 39.38357543945312 9.225021362304688 C 39.38360595703125 9.224960327148438 39.38363647460938 9.224899291992188 39.38368225097656 9.224838256835938 L 39.3837890625 9.224655151367188 C 39.38383483886719 9.224578857421875 39.38386535644531 9.224517822265625 39.3839111328125 9.224441528320312 L 39.38409423828125 9.224136352539062 C 39.38412475585938 9.224075317382812 39.38417053222656 9.2239990234375 39.38420104980469 9.22393798828125 L 39.38468933105469 9.22308349609375 C 39.38475036621094 9.222991943359375 39.38481140136719 9.222885131835938 39.38485717773438 9.222793579101562 L 39.385498046875 9.221710205078125 C 39.385498046875 9.221694946289062 39.38551330566406 9.2216796875 39.38551330566406 9.221664428710938 L 39.38607788085938 9.220703125 C 39.38607788085938 9.220703125 39.38607788085938 9.220687866210938 39.38607788085938 9.220687866210938 L 39.38636779785156 9.220199584960938 C 39.57188415527344 8.900314331054688 39.90737915039062 8.721710205078125 40.25233459472656 8.72174072265625 Z" stroke="none" fill="#fff"/>
    </g>
    <path id="Path_69" data-name="Path 69" d="M20.98,6a12.45,12.45,0,0,1,12.074,9.413,9.679,9.679,0,0,1,14.117,7.3,6.913,6.913,0,0,1-1.3,13.705H12.684a9.679,9.679,0,0,1-4.14-18.431A12.444,12.444,0,0,1,20.98,6Z" transform="translate(-1063.997 1208)" fill="#4286f5"/>
  </g>
</svg>
