<svg xmlns="http://www.w3.org/2000/svg" width="15.119" height="15.058" viewBox="0 0 15.119 15.058">
  <g id="search" transform="translate(0 0)">
    <path id="Shape" d="M13.008,15.058h0a1.092,1.092,0,0,1-.754-.3L9.779,12.443a6.638,6.638,0,0,1-3.155.8c-.124,0-.25,0-.373-.011a6.625,6.625,0,1,1,6.192-3.459l2.357,2.4a1.086,1.086,0,0,1,.319.771,1.1,1.1,0,0,1-.319.771l-1.018,1.019a1.092,1.092,0,0,1-.76.319ZM6.627,2.785a3.836,3.836,0,1,0,.749.074A3.826,3.826,0,0,0,6.627,2.785Z" transform="translate(0 0)" fill="rgba(255, 255, 255, 0.4)"/>
  </g>
</svg>
