<svg xmlns="http://www.w3.org/2000/svg" width="31" height="31" viewBox="0 0 31 31">
  <g id="security" transform="translate(-39 -628)">
    <circle id="Ellipse_1951" data-name="Ellipse 1951" cx="15.5" cy="15.5" r="15.5" transform="translate(39 628)" fill="#ea4335"/>
    <g id="_13-Payment-Security" data-name="13-Payment-Security" transform="translate(18.852 614.525)">
      <rect id="Rectangle_7251" data-name="Rectangle 7251" width="10" height="8.9" rx="2" transform="translate(31.148 25.975)" fill="#fafafa"/>
      <path id="Path_23870" data-name="Path 23870" d="M36.148,25.861h3.218A1.931,1.931,0,0,1,41.3,27.792V32.94a1.931,1.931,0,0,1-1.931,1.931H32.931A1.931,1.931,0,0,1,31,32.94V27.792a1.931,1.931,0,0,1,1.931-1.931h.644V23.287A1.261,1.261,0,0,1,34.861,22h2.574a1.261,1.261,0,0,1,1.287,1.287v2.574" transform="translate(0)" fill="none" stroke="#fafafa" stroke-linecap="round" stroke-linejoin="round" stroke-width="1"/>
      <line id="Line_805" data-name="Line 805" x2="2" transform="translate(35.148 29.475)" fill="none" stroke="#ea4335" stroke-linecap="round" stroke-linejoin="round" stroke-width="1"/>
      <line id="Line_806" data-name="Line 806" y2="2" transform="translate(36.148 29.475)" fill="none" stroke="#ea4335" stroke-linecap="round" stroke-linejoin="round" stroke-width="1"/>
    </g>
  </g>
</svg>
