<svg xmlns="http://www.w3.org/2000/svg" width="17.74" height="18.164" viewBox="0 0 17.74 18.164">
  <g id="settings" transform="translate(-0.477 -0.381)">
    <path id="Shape" d="M10.324,18.164H7.415a.826.826,0,0,1-.828-.821V15.9a1.446,1.446,0,0,0-.759-1.157c-.179-.092-.355-.194-.538-.313a1.464,1.464,0,0,0-.679-.225c-.035,0-.07,0-.1,0a1.445,1.445,0,0,0-.6.129l-1.289.694a.835.835,0,0,1-.631.068.83.83,0,0,1-.5-.4L.1,12.184a.81.81,0,0,1,.331-1.112L1.7,10.379a1.427,1.427,0,0,0,.667-1.2V8.866a1.417,1.417,0,0,0-.638-1.221L.752,7.086A.81.81,0,0,1,.445,5.968L1.9,3.477a.834.834,0,0,1,1.132-.3l.982.554a1.483,1.483,0,0,0,.634.143l.071,0A1.489,1.489,0,0,0,5.4,3.664c.129-.081.268-.161.424-.245a1.434,1.434,0,0,0,.759-1.153V.822A.82.82,0,0,1,6.831.24.833.833,0,0,1,7.413,0h2.913a.817.817,0,0,1,.312.062.826.826,0,0,1,.448.445.819.819,0,0,1,.064.315V2.26a1.438,1.438,0,0,0,.76,1.157c.194.1.368.206.533.312a1.483,1.483,0,0,0,.682.224c.035,0,.071,0,.106,0a1.467,1.467,0,0,0,.6-.128l1.283-.694a.835.835,0,0,1,1.128.327l1.395,2.52a.813.813,0,0,1-.332,1.112l-1.279.69a1.428,1.428,0,0,0-.667,1.2V9.3A1.444,1.444,0,0,0,16,10.521l.983.558a.812.812,0,0,1,.309,1.117l-1.449,2.49a.831.831,0,0,1-1.131.3l-.98-.553a1.492,1.492,0,0,0-.634-.143l-.072,0a1.482,1.482,0,0,0-.689.209c-.133.082-.276.164-.423.245a1.419,1.419,0,0,0-.759,1.152v1.445a.832.832,0,0,1-.244.582A.823.823,0,0,1,10.324,18.164ZM8.912,5.883a3.2,3.2,0,0,0-.045,6.4H8.9a3.2,3.2,0,1,0,.015-6.4Z" transform="translate(0.477 0.381)" fill="#fafafa"/>
  </g>
</svg>
